<mxfile host="app.diagrams.net" modified="2021-04-27T13:10:41.520Z" agent="5.0 (Windows NT 10.0; Win64; x64) AppleWebKit/537.36 (KHTML, like Gecko) Chrome/90.0.4430.85 Safari/537.36" etag="ijGJCCESPcJzvmVjr8hz" version="14.6.6" type="github">
  <diagram id="FJnOdUEfC9Ho7s9khKO1" name="Page-1">
    <mxGraphModel dx="1317" dy="1086" grid="0" gridSize="10" guides="1" tooltips="1" connect="1" arrows="1" fold="1" page="1" pageScale="1" pageWidth="827" pageHeight="1169" math="0" shadow="0">
      <root>
        <mxCell id="0" />
        <mxCell id="1" parent="0" />
        <mxCell id="AcUgybYXmRdaUsrV0XQZ-5" value="" style="shape=image;verticalLabelPosition=bottom;labelBackgroundColor=#ffffff;verticalAlign=top;aspect=fixed;imageAspect=0;image=data:image/png,iVBORw0KGgoAAAANSUhEUgAAAMgAAADICAYAAACtWK6eAAAgAElEQVR4Xu1dB5QUVdb+bvUMkkQkGEERBQUV4+oquqLoIqsuMF3VIsL0YEBXhcE1u7rrGn7jrotZDHQ1INBVPYAJMSIGjLjGRcUIDMoqsIjE6br/ed09Caarqns6VFfXO4cD2ve9d8P76qX77iV4xdOAp4GUGiBPN54GPA2k1oAHEG90eBow0YAHEG94eBrwAOKNAU8DmWnAm0Ey05tXq0Q04AGkRAztiZmZBjyAZKY3r1aJaMADSIkY2hMzMw14AMlMb16tEtGAB5ASMbQnZmYa8ACSmd68WiWiAQ8gBTB01fDZnY1y9AXXdZWAjgx0JEjxvwU7BKxnGOvF3wawHlT2s7QVX4TmjFhbAHZLuksPIDk2/1hlTn+D6k4GYwCAvgD2B7BL8245AYv4H1HEf9f/v2aUqwB8DuALED6SuOzFKdrwz3IsQkk37wEky+Y/pyLaO+bDiQAfA2AwgF7bd9Hi4LfgJGWdbwG8BNAiXwyvPF7j/zrLIpV0cx5AsmD+MWPmd5A2rhsOSRoG5mEMtMm3YpPw2QKiuTCMuUa7TnOmTh3yaxbEK+km8m1HVyl7jF8/WpIwmoHhBPRwknAMLCdgjmFg2tSo/LaTeCsmXjyAZGCtoKwNhiSNBfPZKfYKGbSaiyrJeYVoOgxjiqorL+WiFze36QEkDesGZe33RHQRA8PqqzEY1LC5TqOxPJBuyxsBc5n5AVVXns9D967owgOIDTMGz5y5L2Jll4NwoQ1y55MwHoKv7i511sivnM9sYTn0AGKh/2BAuxyMywHatbXLqcZzqCb/YgZRy2bgZr8l6mRy/tVcxPoW+EcQ7lIjyl2FHYLO7t0DSAr7nKvM3a8OW+8BMDRxP2E0uaewb1SxzJGSA7uxFtcy6GNifAyJfyTQ/xj4nwT8b9cuGzu227FuDwJ3qzN8O23eIHVdt76896Ytvn0NQ4A0URIcZbq8EyCRknctmFeG8gmPacOW2peqdCg9gLRg60pZGwrCPQTaL/2hsO3Kn39l0OvE/DoBrxsx38fh2RU/86qLdgO3+S1ifASAg5KXiHsD6JCqz/W/lmPZivabPlnSed1nX+7My1a071IX85UL+tbMLwxeCsaEsK7MS19ed9fwALKNfavk6HgmFjNHmqXpAoqXgjAPBuZxu04L6+8juLb6d2CcDvDvQXRImh1sR755iw+fL+2Ej/6zMxZ/3G3z6jU77JAgymwhRkwTQrr/3tby5ab6HkCaWLMyoN1DTONbYeDJzDyn6ZeYV03ogzoEAToLQO9WtG1Z9aPPBFC6YsGbu1vSpiJg4nvDEWVCxg24rKIHkKRBg4r+bGK/kVGZDBiTVS3wfn1tXj7hREh0MQB/Ri22otK3yzpiwZu7tQYo81RN/kMrWHBNVQ8gACoV7ct09hvi3kPsNABEAePWZsAQyyjgKgAFH2ACKE+/0BPvfdgtfleT5NnW4BX7krCm9LFF7GKikgdIUNHjIz1xLpT8p7XBlzPTzWHd/3DDjLHiop6Qym8Eo8q6en4pXnljdzz1fE+sXpvcolh236gLVZNLeoyUtPBBJfpm0uvWYsg0DhhiqJJBNzb1muWVEy8G8x0A2luOvQIR/Pentpg7fy+8/k79SbHdDwItUjX/sQViu+DdlixAgrI+CYQJ1ic+DQNpFUDXq5p/csOs8e3E3dGG7wcwouCWtMmA2MDXPLs31v0iToetQJI8DWPco+pytc0uXEVWkgCpkqO3MPG11pZsOC6dY0h110+dNfKTBnAsmzgUEj8Kwh7W7TiLYvnK9qh5plf8xMv6A5FcgDL9X0j3/8VZkuSem5IDiP17jgZPWE2N+ANNTcErJowHUQZ3Jbk3aDo93B/qh3c/6JYOSErunqSkACJuyIlIHOfaK0Tbg6O2+hYANmYfe10UmqoRJPY4YeY/lNKNe8kARPhWbcWWeXaPc5nphrDu/3uzmaO2ehIg9i3uKnPm7Y05z+1lSyhx/FuONkNLxXerZACSzkVgKYGjHhXpgARAyVwklgRAEi7rdKfNT+Tdqi7/ufnMMfH/AL7GVv0iJpoxuzfmL9jTngTEV5SCq7zrARJ/7GT43gCk5HuOluzfcNw5R9XkZke2XDtxIsB32xs1xU91z6P9k6dbZkfAcWf7HyHFBrr90ZX7ASLrDyZeAlp6uK4ypLrBzY5yV0wYBqI5xT/s7UsgjoDvuH9A8p4kVb2G+5GHVF3+k/3Wi4/S1QARb8hBNN8GOMSl2QXNLgF/uHwfGFvfBSAuC0qqiMvE0CyrpzD1IOEhbn7j7mqAVCn6nKYBFlKNcuE+EtLlZj5UXDthPkC/LylkNBH20el9m7ilpNaCCAQR0uThbtWTawESD81D9KKZ4ZIerst9MTqhmW9VbbW45xD3HSVbhO/WrfcOwJq1ba29gJlPdmtIIfcCJBCdlohbZV6Y6cJmXrk/jj8EMenfVvVK4XfhBaxGrJZaYnVK09WIf7QbdeJKgCQjHr5lw2BRVZPlpnRcW/2ME95y2OA9LyT3Pd4v/p7EqhgGfuvGCI6uBEhQ0e8F+JLENtJMROPIZo+dVkw8C8RPWA2GUvpdPLq64a7DUoqcCFEhCt2nanJrnis7Uq2uA4gIJE2bflliI1buZFWTL2g2e6ys/hgcjzDilSYaECdaVu/cRSxgbrvjAW4LmO06gARl7WwQTUs9wuvvQ7aZPWonjAOo4YWgh5BGDTTOIhZ3ScyjVV2Z7ibduQ8ggWgEzEoqIyXvh7efPWqrPwXQ303GzaYsYhZ59c3dzR8lt+D9nE0eCtGWqwCSSF7D/wHQpmVlJsOrbeOyzSuqzwRhZiEMUCx9ipBC/3xYrD5NZ5Etvhj1c1MSH1cBpFLWLiCih8wGXUvROnhF9UsgnFQsg7VQfF5505FY9VM70+6Z+cKwrrhmqeougCi6WP+OSi0UgwnNAqPxDxMOgkEfF2rQFVO/06K98eJC8cK4ZQ0nY8I8EdZky/unYpHbVQAJKvoyWGR62vZFHLvshWAuB17jMsu0l+WqJvfMJR/5bNs1AKlSIocypA9Sb87jgdM2+DaX7/b4k8N+qafj2gmfAySyz3rFQgObNvkw4fqjsXVLman7CcE4LKQFXOGN4B6AyNpEJrJ6t7FA1eQTG8Fx6ZGAITx2vWJTA7fdNwBLvtzJlJqYLw3pyr9sNuloMtcAJKjojwI410Lbt6iafF0DQJZPuB4S3ehoCzmMuegzveJRGi3KY6omn2dFVAy/uwkgCwEc35LS6w8mifnEkK4saLK8WgDQCcVgKKfwKGYPMYtYXBm+pmqyiFFc9MVNAPkRwC5mFuE6qZtIXiNo+FOlDXbefZNwRS16K+ZRAJHE55Jrf2vV4ypVkxuyYVkRO/l3VwyOquGzO3N5bE3qS6z4AWStqikNEQm49tLjAUPMOl5JUwMTrz8Ka9eJu9iWhk/SRXSrb+fQnBFr02zaceSuAEilMvsoQuxt09kDmB/W5FObLK+qAXLFRjLfo+quBw/CJ0t2Nu2W4Ts6rI14J9+8Zbs/dwDETsRExl2qLl/RCJCJjwDsio1ktgeFVXuz5u6DeS/3MAeISyIwugIgVbKmMFEklcXi6ZQlNIvjxCuqXwPhOKvB4P2+vQYEOGbO6ZUyfbWoQcyBkK5oxa4/VwAkKGtjQXg8lQtE3GCEcaGI/EjjDFK9HIDNKGnFbubs8v/qot0wZaZZ8ikW28FzVF2Zkt2e89+aKwBiK2I74Uw1IsdnGY4oPhy3R13+1e2OHt/5oDseCB1gKoxbMua6AiBBOXoNCCI8aEqjSYRTp0Tk+XGAJBLf1LpjuOZfCrFBFxv11IWEKa5Vdf+t+ecuuz26BSBXgvh2M9U0A0jtxH4Af5ZdVZZOa9YAEV8hukrV/SItXVEXVwCkUo6eR8QN+4sWLdJ0ibWy+jdgFP0RZKFGnp0lFjOdH9b9wv2nqIsrAFIlaxVMFDWzRNNNOq+YOBDErxe15QrIvPUmPX6K5Q/pSk0B2cxK124ByCAmeiVVUsptj3n5x4kDEfMAkukIMj/mTbz639bvLdO+Cl3PFQCp9OsDSMKHpspsclHIy6qPhg92AssV2j6O7N/WRaGBQ8JR+SNHCpAGU+4AiBLZkyCJe42UhZu4mvCySw+Gzyh646Vh56yS2nM1MXqEtcCKrHZcgMZcARBFibRrD2mDKTyaOCty7YS9APquAPp2RZfmzooJETfAaK9pgY3FLrArACKMEFT07wGYvuSpd3fnZZe2g88wAVSxmzV3/Nt0d1+marK9rKC5YzUrLbsHIAFtBphGtqSVlh5McW31T6WYHKe1o8bWgynimWpEOau1fTmhvmsAUqnolxBwr/lGna9XdeVmQcO11e8BOMIJRigmHp6c3xM1z/YyVzMwPqzJ9xWTXKl4dQ1ARsvasT6iN8wENZpu1GurRRR3V3zl8jkQxQb90yU7m4YgjTEPnKYrb+aTr1z15RqAVFW90pZ//Vk8p23f8jIrHqb/V6Ntp11FBHKunfgXgOOziVfsaWDzFh8m/OVobNoimaWV2EAdunYNhU7cZK9VZ1O5BiBCzZVK9CUCm4YQrQ8cx8vHnwZJetrZ5nEWd3YCxzHo5bDmH+wszjPnxlUACQa0u8B0mZk6mDgeepRXju8OllZlrrrSq5kIPWrxhIb4H2pEudwt2nEVQMYE9CES47lUxkk4w/PSsKbEX/vwiuoPQRjgFmPmWg4RvPrHn9qZ5+winDo1+awg1/zko31XAUQoLKjoJnk+mqc/4NpqEYlxYj4UXex92Ex/8JmqyQcWu6xN+XcdQCoV/Q4CGoIzpDBWPIEO1044FaB5bjJormSxmYbtzrAmX5krHgrRrusAMkaJnCBBEhETk8letlVr8xRsXFud+hliISziwD6tU7AldG3AGDRVC7zqQBEyZsl1AEkus94HcLiFVpKzSLWdmL4ZK9gNFe3MHgAWq5rsuotXVwKkUtZuJKLrrQencWTovkU7I2a8YE1bmhRWaaDrtcLMN4V15a9u05IrARJUIkcAknhSK1kYLKpqssxeAs+Uarrv8X5478NuVuPeAIyjmuact6pQLL+7EiDxZZas3wfCxVaGYKYL1Xte7QDQP6xoS+33V97YHWpkP2uxGferunyJNWHxUbgWIGOVOf0N1L0LUPtU4YAI8axTy/ftsf7U66/4YBGAHYvPhLnh+L8/tcWt9w7AmrVtTbJJxTfnGySU/WaKNtyVUWJcC5D4LBK/WcdlZhEXBR0x1Cn3LFwO0F9yM9yKr9VHp/fF6+9YZTBgoVpX3ZxvaylXAySZN12kWOtiNUQ77bTl0ntufPsmAB2taN3++4I3d4c4ubJRVvti9Bs35UUvKYDEZxFFFx67dmaGVdXnfzLzsIPWTLAxMFxLsnxle9xx/wCs+6XcjozNUtrZqVBsNK6eQYQxzhk5d49YbOtrDO4t9hwtl4ZLxTmhSa/1A7B/sRkyW/ze82h/LP64azI5Tst3qCzC+oC+9vnKj3985jBXh3B1PUDEwKlPj5Dqbj0xuBK/7tJ906I7rnv3mGwNuGJq5/5QP7z7gTjSTa2p+l/ckt7Ayj4lAZAESKK3MfFV5gpJuKH03Xfdt9dO+ND8XamVZovs90ZwWKTnjB9q0O0h3X91kYmYEbslA5DkfkTcmJ9sBySnnbx8rXLGN50z0mqRVZozb2/MeU4EIbEGB4AXVU0+pchEzJjdEgOIuGGnFwAyT7CXVOfwU7/H8KHuDp/VCA47Y4hFotRT3Hhjnkr6kgJIYhaJjgP4YTvDQdAMGbQCZ4342i55UdHNmN0b8xekk2SLLlA1/+SiErKVzJYcQJrvR8y37fW6Pfzgn1Fx2rfosbs7Ys2Jo9yaZ3olT6usRlBCR6W072iqkZIEiFBApaxPJsL5VsOj/vdOO25FxR++w6BjV9qt4kg6cQlY8+zedu854jIw45GwLo9zpEA5ZqpkAZJcbmkAy9Y6bpxpjjvqRwwb8j26dyuuqDbCt2ru/L2auI/Ymz0B0lXNr1jryJ0UJQ2Q+EyiaC8RyDRU0Lam79J5M874/TKcOLA4ZhPhlfvU8z2xeu0OaY1iBr8c1hTXhPBJS/gkcckDJDGT6K8AGGRXgUkvYBx5yE84/ZRl6NVzvd2qeaUTj52efqFn/D1HPc9pMLBA1eQT06B3JakHkKRZg4r+AIA/ZWJlsS8ZdOwPjgGKAMaCN3eD2G9kWB5UNfmiDOu6qpoHkCbmrHdJSbhaGEmXC/v2FkARJ14D+q+xXymLlCI0j/CjSh8Y4oJQPL6Mp04LhHRFyyJbRd2UB5BtzFcla8cz0TPpP56KO/DF76J36bYRA/qvxoB+a9C39zq0bRvLySDZtMmHL77uhI/+szM++qwLViWDuglnQqs3MC0w9AsxnxbSlddywmyRNuoBpAXDnavM3a8OW8WF2InpD7X6Gom/27SJoffe69Fnn3U4sO8a9NhjAzp22JrRcBHJa5bXtsenX+yML7/phK+/64gtW3xNXETS47YJ9StlKB/3mDZsaUaMubiSB5AUxlWUSMf2kES+karW2L+lzXHnTpvjQOm5x68Q9yvt29WhXdtY/G9RNmwsw8ZNvvjf4l3GstoOcWCsXdf8FCqDjff2ohBP2cA8QdMCzjxpaI3ys1DXA4iFEiuVyCiCdB2D+6V+T2LPEo1f7Cb/YgZRy2aIp69u+C0ZNjWTxdM27CXfcyxm0K1hza/b4740qTyA2LR7UNYngTBBXCsjxYC22VThyBK8x0B8qxpRbMQNKxyrTunZA0galhDxthjS/QQc3bgJdnrk0noTxxMIzd1ctuW8GTNGifyMXrGhAQ8gNpRUTzJWqTnJgHECgU5g8AmJ/2/XZSONjrJG2sDbWoAWgrGQfFgYmuUXgSy8YkMDHkAslDRGiRxHTKcTkQDEb5uTOxkc9Zxux6O44FnITAuY+bmpUfltG+OkZEk8gLRg+nFnPdVty9ZNo5lEkk86qqj3HamGdnIvRcDbYJ7ZprzttMkzzvCWXtvoywNIE4VUKZFDmaWzQTgbQMZ+GkX6uV0JxnQiY3pIC/y7SGXIOtseQBKvDE8DswBGntJC1x/z2lmi1dOkdwnYqpHCmAGi6armFx4FJV1KGiDBQHQgMcYz+MzsjoLGk6MU7W4EsBqASFu9moHVRCz+W/wRpQszdaFEREjxRwSqEn+3a7k9y/4yEo9As5hwrxrxp8w/n1HDRVSpJAEy5syafpJhjE947+bsy7yagC+ZaCkb+JJgLDWYlraRjC8f0wL1QEhrqJyrRLpsMaQ+EvF+DGk/ktCHWPwbIimpZXjVtDqLEzfo5kFDku6dOqviP+m3Udw1SgogYoDVQfozgPEAdUoV9d3KpCkWRj8Q8LLIE24g9vJULfCNVTvZ/H2MEtlHgu8kkSeeAfEAbLem7dtZzKXmJ157HYB7y2D8M1OAZ1PefLVVMgAZo0THSGAR7Kx/a+aMpJtG0j70HNhYKAGvTtGVN/NlNDv9jJW1Yw3gBJD0O4BPTcwHCY/jTEoTnX1mgG6bqvmnZtJOsdXJTFtFJGWlXx9AProGzCOzxPYrYHqGmJ8JReUlWWozp81U+fUDmOg0EJ8mPJSz0hnRTI7xreGo/FFW2nNoI64GSFDWrgGRmDU6Zab/hu/mWwCeJhjPFPsRaPwoG5IAyumJi8/WzKdYB+bbVF25NTP9Or+WKwFSeWZNXzJikwCKLy3SKdu4kD/FLE0O6xVPp9NGsdBWyjWnExkinM8ZgufM3ef5OZZ81eFZFV8Ui+x2+XQdQKoC+hnM+BeA3naVUE/XZCPramBsq5emQGnFZv5rIkwMReSn0tW7k+ldBZCgHL0MxHelp/BmQ6KkgGEGlMRvGcCF6XJV97smIaorAKIoEV87lh5MJ1Ji08FBwIdMuF2NyDPSA5c7qYMB/SxiXMXAIZlIKCIxbiTjT5oWyM1j/EyYyrBO0QNk1Kindy7builClmkNttcQA3UE3O7bXH77408O+yVDHbqy2jl/nLtjbIetAiRXEVCWrpAMvFhX3jbwxBOnFybES7oMp6AvaoCcWxHdu87HzwE4wL4+GoIqzJYMun2K5+5tqrqxfv1oQxKJh2hEBideS8pidOpjNf6izSFRtACpUiIHMyRxOdcxzZXyKiZcE47Ij9sHlUdZGdDPIYY4zt3Fjjaa2GQ9wTg2pAU+tlPPaTRFCZBgxayB8Plet6PMpqEORKxZCWWXhbQRnju3HeVtQ1OlzD7UQN0/ErGM07yXj8WOU2vOLDqnx6IDSHLmsHV72+wKjHHPPj91veyGBScmYut4JSMN3DDolbJvuv38j3gAC7tJ25I9EYwBxTaTFBVAxipz+huo+zTNC61fiHBZKCI/ktGI8Cq1qIGqgH4+M8Rx7o52VFRvMwllB07Rhn9mp44TaIoGIPXgSE9p/G+G76KwVrEovXr5pR6nRHbaDGkUgIMB9GBgKxEvJQPzQrqyIL/c2O+tUqk5hhB7AKBD7dcSUYCLByRFAZAkOOYBEKlYbRWx32gTk4KP1viX26pQIKKgXFMJMm5qKts2M+RrvhhVPV7jd2SixPMqoj22+Aw1zRwr30soG1oMM4njATJaiezngzQHwIFWY7hxz1EcWZGqFP1qhjgZsj6HYwOHh6PyB1Y6KNTvQSUaz9aVhuvjpzEYw6dpAUfHA3Y8QIJKVDgKnmb1uKnBMIy7VV0Wj6IcXapkbRATicQ9dsuGreWbezzxxNmOvXgLyvo/QbjUHkjiQ+8ZVfMLr2LHFkcDpF7hdrVXTLktgoo2F5D+aAX8Rtnjs0xU1WQbORXtaiz7dI05Vmy27fAPmmMBMlaOXmAQP2RTzSAYQ0NaQNyqO76MCehDJEZGvDJLZzjd/b5KiZzKkMSe0VaRmC6covtt56631WiWiBwJkMpA9ERiFgq2lXWymGYOYbegrM8CUcD+7FFv7fgs8pSqyX/Mkv1z1kyaM8lmJhoajvjTWXLmjPemDTsOIJUjarqizHiJbHqSEvOlIV0R7z+KoiQzWC1sDbPFMIsI+apkbSIT3W1HVgY+RJ00ODy7QoRCckxxHECCsv4gCBeaayi5DWTcperyFY7Rpg1Ggoo+BaCq9GePZo0XxSySnC3vBOFyW46OjIdUXc4okaoN1WdE4iiAJO8EVGtJ4rE5nghpfhEitGhKUJl9BBB7LxsMM9FJTlyStCRblRKdzsAoWx8FloKqXhHOho6y0YZjAFJ55sy+MMrE0qqHtWD8b6PON2Tq7IpV1rTOobA1ezCwd8/1+G55RyvGi2YWGTOiZhepLDbfzo07A8sh1Q0OzxrpiPftjgFIMBCNgFmxGhXMqPORMWSKFnjZitZJv49VIv0NSJ9a8bTHrhtwygm1UCP7WZGCJDqqWHJ9jFUiJ8VYmk9k4/EVkaZG/AFLBeSBwBEAqZKjFzHx/VY3yvEzHEK1GpHvyYNustqFrdkDwKgRX+OU363AdXccjhUrO1jwQE+qmn9YVhnNYWPBgD6BGJPMc3IlvAqI6eKQ7n8gh+zYarrgABmrRLobkIQz4b7mHBOY+ZGwLoswNUVVqkbO6MWxcotQpIyuXTbj1msWx1NHv7BwD0yPWqhEhFUw0K9YAtgJo1XK+mQiOt/GfuQrCcYxU7TAfwtp7IIDpFLRbyVABHezKLzIt7nNkGJ8O56YPazTSY8Y+h2Gnfp9XA9b63y4/vbD8MOqFAHdk9pi4ImwJhfNYUXirfsWsR85xtLiwG1hTb7Gii6XvxcUIKMrZh7u85W9CfAOjUkxWxaXiU4JR/wv5lIZ2Wi7SonsBqY+DIio6/sRaD8QLNfTO3bcipuvWoydOm1pYGP+K3tixhwb4b0YEUj8FYGWMmjpFt/mz2fMGPVjNuTJRRuVgejJxPyCedvxo/zNsVjdsdNqRi7OBR922iwoQIKyPhWE0akYbZJmZlJIkyfaESgfNIoSadfOkPpAMvoSUx9IUh8w+hDQh8G7pvkYNc7yaYOXQ/lj81XYxo0+/PWuw/Hfn9qmFGs7x8DG/7ESgPCU/YqJl/gMLGGmz52yHKtS9H8xUG3p2MiYpurymHzYtaU+CgaQSlkTiTHtROH7Ohaj46bV+IXBC1YUJdKmHaRLAB5BoONSzHPJYGvpsSn2HDdd+QF27S7y6jQvT7/QA/rT+6TR4LZDruFStekkPZmZ54R1xba/VBoM2CIdXRHd3edjEVfAcopk5jPCulKQ8K8FA0hQidaIwWatTbpA1fyTrelyRyE22UasfDoBx1p+8TJg4+TjazFa/qrFmr+sb4O/3nko1qy15ZaWZu/0ZBliYwuV7yOoRMcBbMNJkWarmr8iTeGyQl4QgARlbTCI7OwnCn4ZJl7MbfXxsqxoO0Ujf7/iA+zdY33KLubM2xtznrP9mDItVpnxdjmVj35MG1aQh0tBRX+yPni2KePMJ6u68lJawmWBuCAASbgesHiDbV6Ijit0frygoi8G6DAbx5JW0rT4+/BTv8fwodZx1W67bwCWfLlTRn2YVUqGRXpO1ZShWW/cRoMiTyQ4vtQyLQQqiGtR3gESz3xEZCc+0mOqJp9npbhc/l4pR/9GhBuyC47G57UDj1qF88/+3JYItT90wP2hA7BiZXtb9OkT0emFymobVPRHAZxrxbPEPDDfmbzyDpBKWX+MCOdYKSPGPHBagdOaBQPaDGYamT0lJcDRudMWDDr2B1szR1M9CZC8umhXvPX+LvjfL+UNP2VpX7RA1eTsZJ+yMu42v4+WtWN9Nj6azHg8rMuWQEqze4uZK5utWbRl1x8pnqM74k95/JsvloOK/jlAfbMxg+zabRP26rkeBx+wBgP6rUbnnRrvO9KVZ8PGMixZuhO+/KZTfEap/aE9flqd+ig4kUTKMjBEwQAi5A8GotPiueotCkt1++fTkTF7H0crycRVckC7nplutCI1YAye6gBnxAt0tcQAAAsdSURBVKCii4jvJm612w86STK+2nPXDasH9F/Tqc++6/bfrfsm7Np9Q2J85ris/LE9vq/tgO+Xd8Cy2g7WwGnOT0EBMkaJnCRBst6EE/6sRmRbj7Cyoe48mK2RzaCifwhggBnjDK4Ja4o/G8K1to1KRX9DSh7tpm4rDpJPx1R8c/fgE5YfDeD81vabzfoT/3b0K2vXtjFfOiXWaAUFiJC5UtGiBDI9zhXxzsKaMjibOjJrK28AqZS1YUQk4luZr/kIp4Ui8rNWdPn4PRjQHgGTjYMCwp67/4qLq5Zgj91+zQdrtvq4ZdKh33z59Y4Wt4zJWZD5clVXCpoZqiqg/4EZz1gJ55OkQx+fVSE+tjkv+QOIooeJeYzZWoMZb4Z1eWDOpbbZQWVAH00Mm/nAnQWS+0P98O4H3WxKCrAk7e+EJJyVsv4GEY5NyTiz2E9dp2ryLbaFawVhXgBSNXJ2L47FRMBiE9dUFm89rg5HlNtbIU/Wq1bK2i1EdK29hp0BErvgqA9x6qSoMJUB7Spi3GbuvEqLVM2fGkT2jGWLKi8AqZS1i4jo/tQcJRbBhiT1nzqr4j+2OM8jUeK1IxR7p1mFBYl9cCSkYaYbwrr/73lUp2lXY86s6ScZxmdWQR7yFYo1PwBR9CgBKTdfyS/Z06omx/N1O7EUA0jsgiOhX7FUwb/UiHKp0/QdVPSnCHS68IpOVRi4LKzJ/8w17zkHyLhxD5dvXtPlJ4A6tSSMUIIEAsO4QNUCBXVKtFK2k0GSHjji9yJT1Ijf8sLWSie5+D2oRMYRpIcN8fQ2Hti7xZIXP72cAySZpN7ErT1+ivI/gnFASAv8kAuFZ7PNdEGy157rcfX4j9C+Xe4SWz0xe188v2APazEbHtg4JyhCS0yLR2cMaQlAO5ksa9dLMHrn+kluzgESlPX7QLjY1HoOimJhPcrit75p7EmA3w+qxagRLbuz2+nPjObDT7vg7skiM4TlTXn8a8wEx0QMMZPLVpQbwplqRI60Vodm9XMPEEX/EoB5DJs8345mQ6HpgKS8zMDNVy9u8UFUa3l5KLx/3DfLVimiD1EwoF8KhvkeIw+RGHMKkEolsidBsszwxDCODmuBd2wZ2UFE6YDErlt7OuKJR1SX/u0oe1WKCBxCoEolchRBettCuM9UTbZMrGRPQS1T5RQgVQF9ODNmmzEoIumFNblna4QoZF27INlz9w245er3s8qquAgUm/PUJbnsKjJw1MtTqejLLCNtGjhIjcqWAfkyVXxOAVIpR28h4pSXbPFLUcnZG0Y7irULktCk1+w0Z5vG/KVhckdepOAQShB6ZYMVc0dP4yJVCzxoW2lpEuYUIEFFex6gU0xnEOYLw7pi411ympLlkTyRCwMRq9BF+QVIQgEMqghrftNZPI+qSqurSlm7gIjMkyjl+GlEjgGii3x6nc204ovRvk7N4GrXmlap4sS3vPOOWzHp5rfsNmmLbtF73fHw1ANMaZ12U25LsCTRORXR3jEfWx3/fatqcjphX9JhIfUtTFqttEBc5df7sASrCN0/q5ps36OutUzlqH5QiYrgd6aRAg/suxZXXPxxVjkQLwyvvfVwkyPe+E30bFVTChIRJBvCBhX9JwBdzdoyYPSeqgUsQrtmxk3OZpCgEhUJKuemZksYT8qb01lm6rFXK6hoGwnU1iwo85BBK3DWiOymOjcMwrjLB6IuZmZG+krV/Nah4u2JmneqxMfHOMbCeXGYqvlFdJSsl5wBpFLRLyHgXrP30sRQQ7pclXWp8tig3bBA5476EscfnX1HgZvuPhRLv92x5aVAwjUcqibnzM65VnWVrIeYEGypn/qxxcD4sCbflwtecqa4YCB6OxhXWnjA5s2vPxfKE23aTVZ5w2UfoNdeqWNfLXp/F7z1fncsW9EB638tj18qHnjAWhzYdw0O7pc6NbrII/LKG7ubilcH48DpWkA8Nyi6ElT0vwC4OTXjJCaXO9SI/6pcCJdDgIiIIBhp4mwGJ71DyFS5lYp+B4GvMFsC+CTe8vCdb7YpKzO26+aNd3bBS6/via+/65iIrRCnaO42ctjBP+GkgT+0CJQXX9sD03SxgjJZ4OXBJSNT/VnVs/oAxeMgE2aqEeUsq7Yy+T13AFF0EQzM9HVgPp9OZqIcO3WCii6ilJ9sRrtTp83fTLrpnWYnLYs/7ooXF+6Bz74Qh3z2Avf85jABlJXo12dtQ3efft4Zdz5wsCmrzHRTWPf/1Y48TqM558yaQ2KG8W8Lvt5QNTlFvOTWSZRLgIhEF6Y35BtgtNe0wPYRm1snU15ri1MWAnU1e7vQa89fX7/hysVxAwpAvPDqnvjgky5p8dkUQsccsQonHb8SffZZh9Vrd8CfhbtJcr+RotE5qibbiIOcFkt5IRaR9NtD2mDR2TJVk3MSmzWXADHPtAVsVjXZJJhTXvTfqk7sbtAPP/jnmaefvGzk86/uibcWd29Vn4nKiSXYcUf/iMHH1eLRJ/a3iLhY7CdZ+iYAptG7c3UQkROAjDvjqfab2262Cu+xVtXknbMwWgrWhN1ILXv12LDg++XtB2Wf0cS8csQhP+P9D02vCkAdurYLhU4UA63oSlCxvnDeYdMOHSY/dYbVTJO27LkByFlPddtct9kqt9xKVZNtvPJJW6a8VUjE7uUbUndYv9muT6ljb69hWwCOJzW1ddtLsbqjQjUj37XdtoMIg4peC8D0qG6Hsh26T55xhrhUzGrJCUBGVUT3Lvfxtxacfq1qsnWWyqyKm93G0gGIvWGcXf6atkbMJ4Z0ZUHueshdy0FFF+4mpol2tsao1xM1fusw+WmymROANEamMOXmU1WTD0qTX0eR2wdI4dkucoB8AsD03UeuIuLkBCBBJXIEIL1nNiyY8V5Yl39T+KGTOQdjAvoQifFc5i1sV3MxE4kLrxgx35Q4Js/OsqyYAVIp6+8S4UhzPRtHqloguw9uMkqoZ2M0VMna8Uy00IJ0oarJJ9hoztEkQUW3/LqlFqBh8H/KoJvCmn9WU9okAAVQkh+STMAS93l7X9X8FgPMuWoOKvqrAH5nxiEx/y6kK9l9cJMrgFSOqOlKZYb5hon4DjWi5MQ9IJ+mtl5mmXLzBTNPCuvKA2ZUwYDuB+M6AIdmJlvh8zxmxneiVjCg3Q6mK01XJHVSt/Dsip9b009LdXOyxIoLpWhvAtIxKV0gCLIakaPZFqgQ7QWV6AqA0zmR+wZMD6m6/450+K0M6OdIjMsY6J+oZ2NGKeIXhfW6SX4g9JZ1JYawsUjVlJyEIs0hQKLnAvxoo19RM2Pm9JFLOoMuW7RBWX8QRBcmA3q2ODmL9/cEPLQBxp2aFsgog048EN/arpeAcYnVyQ5cAI4GkCi6eO/Rq/mHof4Ync5TNf9j2bJl03ZyBpD4LCLPHgwyHgC4b0OnjLtVXf5zLoQpdJtBuWYsyBDJSbf1zfqWmUISxR7OVnC8s856olv51h0uJsKoZvpNKGEBCE/mM9FMPnS//ctN+gIsXaTqI6wT72TIYE4BIniqqprSFr/s2Atl1BlG7NtsDZAM5c1LtbFKpPvWmNGzTPLFw63m8v5h/NBnd1jXceMQYqO3IdE6sPFJMYZQsmsYEXURkq8X6ngtdvzl21BobE69A3IOELuCe3SeBpyoAQ8gTrSKx5NjNOABxDGm8BhxogY8gDjRKh5PjtGABxDHmMJjxIka8ADiRKt4PDlGAx5AHGMKjxEnasADiBOt4vHkGA14AHGMKTxGnKgBDyBOtIrHk2M04AHEMabwGHGiBjyAONEqHk+O0cD/A6emxKre03mmAAAAAElFTkSuQmCC;" vertex="1" parent="1">
          <mxGeometry x="692" y="422.14" width="94.71" height="94.71" as="geometry" />
        </mxCell>
        <mxCell id="AcUgybYXmRdaUsrV0XQZ-31" style="edgeStyle=orthogonalEdgeStyle;rounded=0;sketch=0;orthogonalLoop=1;jettySize=auto;html=1;exitX=0.75;exitY=0;exitDx=0;exitDy=0;entryX=0.75;entryY=1;entryDx=0;entryDy=0;shadow=0;" edge="1" parent="1" source="AcUgybYXmRdaUsrV0XQZ-6" target="AcUgybYXmRdaUsrV0XQZ-7">
          <mxGeometry relative="1" as="geometry" />
        </mxCell>
        <mxCell id="AcUgybYXmRdaUsrV0XQZ-6" value="" style="shape=image;verticalLabelPosition=bottom;labelBackgroundColor=#ffffff;verticalAlign=top;aspect=fixed;imageAspect=0;image=data:image/png,iVBORw0KGgoAAAANSUhEUgAAAMgAAADICAYAAACtWK6eAAAfU0lEQVR4Xu1de3yT1fn/PkkLKHJxgohXdIKXTZzi9QdOEIWkIEqbCoq0aZkoIg6nzMumotucDB0qKo4BeSuoSJOqKE24aZ3ovIFTNhXwgk4RL4yCoFya9/w+503ekoa0fd+TtGmS5/xDSc7znOf5nvPNuT+HwIkRYAQaRYAYG0aAEWgcASYItw5GoAkEmCDcPBgBJgi3AUZADQHuQdRwY6kcQYAJkiMVzW6qIcAEUcONpXIEASZIjlQ0u6mGABNEDTeWyhEEmCA5UtHsphoCTBA13FgqRxBgguRIRbObaggwQdRwY6kcQYAJkiMVzW6qIcAEUcONpXIEASZIjlQ0u6mGQJsiiLvIWy5IXEugPgA6AuQAhJpnLJVjCFAdSGxxCPokrOvPh6oq/pwKANoMQVyekhqC4/xUOMU6GAEBfBLyaz9NFok2QRC3x7sdQCfDGSKdhNghQN84Sby5V4ityTrJ8tmNgFOIzsLhOEXo4igQdSYg3/BYIBwMaHnJeJ92griKvIKiVgjCxvZ7Dvzlc889+t9knGLZ3EbA5SndRKCeEY4AIb+m3M6VBVNRBQWe0q0C1NVwREALBbSyVOhNpY5tD17dW9fpiFTqZF2pRUDXadeBzvCmDrVbN9PUyj1Su7uwxAOHozLStvR3Q4HHf6FSatoI4ios+z05xB+iRu8M+rWDEjlQUFR+hiB9svQZwHsCqAn5tbsS5XV5vHcSUGyM1CCW5eXnT1v81Jyv4/O6PN5iApUBwk1ApU5iRaiyYnZjANY+OGE5BC5UAZhlWg8BAfEFBO48+IbH5hkkKSqdDqKbIiQRs0OBiqvtWpM2grg93s0AegAIB/2Jx4nRBj81gVM1Qb82KPZzt8f7bwA/i89LhNOqK7V/mZ83oXNZ0K8NTQTgtgeuuV6AHrQLLudPDwJCiJKDb3hsvizd5fFuIkAOtxptZ01ZmTaCuIpKdSIiAbwW8mv9442US74gzI18LlYJnebCgYsJKDQ+AaaaPYm72LsKAlEd4iaAwgBKAchutRZE/YOVvvdjdcpyAfyOQDcAYkS8zlh7ah+c0A8Cb6enurlUJQQIZ3T99azVwy4ruV3XHXfLMcWP333aqaamZocdfWkhiMvjHUiEl2QrF05MDD2tPbo/QUofBdEEAA16C7en7CZATAewLujXThxePPbosHB+ZgyrBJ1THfC9Yepye7zGJorQURaq0rQCj3eRiAzB3gv6tVNj8s0CcI2pM96WnTPG99xLzk12gOW86UWAQDO6TH70Ny6XtxcdhE8j7UDcZnd/JC0EGVo09hoHOWcJAYQCiVcY3B7vSwAGCmBQyK/VxA2njIYf9GtkkA2QefcbdpnDKbO3qSdMnM4YHYbORFVb+8AE3rFMb5u3W3qg6+RZnugwSyfZhUDUBP0VDYbmzSlND0E8pQ87QBMBqgv6fZE167jkLjJ7EFoc9Psuqf+1Ly6dAEGyx9mvBwHRz+RQKqZnqAXQZf8epKFOl6fsQYK4vrEe5IeHJh25R6/jpefmWlPb+r6m6+RZBhncnrK9gMiT2wihSu1YO2a2YYLsm4OQwFydsJRAxwJiIoCjSeDe6oB2qwFAdA4iOySCWCF02kIOY9VpDEA79DANWPrMvHddxaXjSdDfogA9JoCnQTiHBOTkfKAQ+GsooN0YD+CWGVef6ySHnLNwyhwEspsgRsMv8j4BwhWJ6iR2KOQqLh9A0J+GwOHxeUlgQnVAeyymV1kKYEh8PgGspp1f9w8Gg7vjv6udMeFWEO7JnLbBlsohd1b3IGYVF3jKhguI0c3tgwwtHN+THHvGx+6DEOGJJZUVq/cbvnlKxwCOMZb3QR6Y8BSAw7jZZRYCOUGQzKoStrYtIpCVc5C2CDTblJkIZDBBIAjYlpmws9WZgoAAukS2yTJuFStTIGY7swGBDCKId7IDmCGPgQig/pxUNlQC+9D2EKDIkaOu0YOubX+jsKnd77YHL1uU6QjEnMqoP79n1ae0bBRaIYjMY9UJzscImAjEH0uSn2crQeTdjkRH3bk1MAIJEYg94R2bIdsJ0uCgIrcNRqARBOTB1oRDqKwnSPzlKG4ijICdHoIJwu0lpxFojgDNfd8UeG15km7OQfa755HTrYGd3w+B5gjQ3PcZTxBuE4yABQRydg5iARvOwgg0jFNgZ46SsT0IVzojYBeBRCGhsnKIZRcYzs8INIZA5hKEsFFGVOSqZQRaEgEieCHQq7F9krY8xGpJXFg3I9AAgYwjCPFpXm7CFhCQp3EFIGM4y5PfMlKNrWTKZxxBEsWysuU5Z84JBJqKkWYFgMydgyQI9mbFYc6TWwgwQXKrvtlbmwgwQWwCxtlzCwEmSG7VN3trE4GmCFJQ7L1C1+Ei4BAiWqdDLE4Qy9mM85w9NwptYsjZsxiBxggSE62/gffxb8LwJD2LGwe71uDKbH2kf5fHey0BjwD4HoCMnrlWRsoE6PjYN2EkfkwQbkVZjUCiHsTsPeL3NuLfhGGCZHXTYOfiGnh9D9LEWy/GPaIGL5Dte2uG5yDcpLIPgUQ9CBMk++qZPVJEgAmiCFxs95uEChZNAwKJntZrzAwmSBIVZIKXhAoWTQMCTJAmQLcSWdFqnZkEOeHyMnQ+updVMc6XJgTWPeXD9s83ygeO93uclXuQKAJMkDS1zjZQLBPEQiUwQSyAlKVZmCAWKpYJYgGkLM3CBLFQsUwQCyBlaRYmiIWKbW2CfPikD9//dyOO6D8Qhw8YZEwSZUV1OqoXTryizLD4rWl3Gv+eefNdxr/xMptWvYQvX62plzF1JJIxFwxMmfhyY2XMck2ZZGyNL9f0L5Gt8eU2ZmsijBqzNR6jRE2BCcIEARNk3w9PfHNggrRBgvzwzWbU7dqF9l27on3nrgjv2oWd32xGXocOOPDQyPPn8ldWJnOpOF5m9/Za7K6trZcxdSSS6XjoYXB26ABTJr7cWBmzXFMmGVvjyzX9S2RrfLmN2ZoIo8ZsjceIexALZEiUpbWHWIpmslgLIMA9iAVQmSAWQMrSLEwQCxXLBLEAUpZmYYJYqFgmiAWQsjQLE8RCxbYEQSwUy1naEAJ8FquJymCCtKGWmiZTmCCtRBB+Tz1NLTwFxSZ60zyRWr4PkgKwWUX2IsAEyd66Zc9SgAATJAUgsorsRYAJkr11y56lAAEmSApAZBXZiwATJHvrlj1LAQJMkBSAyCqyF4FGCPINgO5CR1moSqt/CLagyOsTBK8QuDUU0O6VqHBs3uxtG+xZwwZeHwmloMg7RxDGQWCjCGNQ6Flto6vQeyY58KYETQCXh/zaQiYIN6GsRyBxD1LiBhzVMc6/B6Bv9P812NnJFQzO3M0EyfrmwQ429j6Iq7h0PASNJ6BfDEoLyanfWf304+vNz3iIxW0oqxFo7gk2t6fELeA4lohqgpW+9+PByHmCDC0sGeRwOH6faa1EgL4L+X2jrNrtLiq5DuQYaTV/28xHnwX9vnI7tjVHkOZ0MUEiBHmxOaDa2vcCtEiBIDPbmh/27CEfE6QZxFJ53F0WJXsQJzlOsFdRbSN3dUB7zKol0R5k5s9O7I1+p55sVaxN5NuydRuWLKsBwARptkJSTZBmC8ySDLEEuXFiGT7c8ElGeHZi7+MQeH4ZE8RqbTFBrCLVMF88Qf7y0Jw2TRIh+wsA82bewwSxU+VMEDto7csbT5Bb77ofX3+3RU1ZK0oxQWyCzQSxCVg0e3M9yB1TJqLX0UeoKU+R1I8/7sLE397dQBsTxCa4TBCbgFkkiMw27c6b0L3bT9QKSIFU+aTb9tPCBLEJLBPEJmDNEOQa72g8Fjl2ZKSH/3IHDjygg1ohSUjN8i3EW2vkiQ9gyqRxmD5zrvE3E8QmqEwQm4A1Q5DfXv8rgxBTpz1s5Dz5xJ/iponj1ApRlHr86edQs+oNQ/racVfgjF/8HGZvwgSxCWoqCVJQ5L1GEGY1agLRBzbNS212IU5qTKHqRqHcB5HLvOYqliSIXEp9f93HuO/hyK/2maf3xYSy0an1pRFtVS8swwtL5R4HUDL6Ugzsf5bxNxNEEf5WJYiija0hlmqCSJvfemctZs17yjB/4ICzUTLqkhZ1ZemLr+DpZ4JGGYUXD8HwIQPry2OCKEKfSoK4PeVuHaKdoilpF1vq9z1n1YjGVrHMHsTUU/Pqm3h84bPGf4cPHYjC4UOsFmEr36rXV2PeEwFDxjX4PFx2qbuBPBPEFpz7MqeSIIomZKSYVYJI55YsexmB55cafo4uLMCQQQNS6vOa9z7Aw3+fb+g879x+KLuiaD/9TBBFyJkgasDZIYgsYdGzQYRWvmIUNu7KIvQ/O/bahJoNUmrDJ58Z859wOIzT+p6MSVddmVAZE0QRYyaIGnB2CSJL8T0ZwCv/XG0UOGn8WJx2SqNrBpaM2rT5G2P5dtv279Hn+GMx5bpyOJ1OJogl9CxmYoJYBCoumwpBpIqZf1+Ad95732jIcr7S+7hjlAyQpJDkkCQ54vDDDHJ07nRQo7q4B1GCGWCCqAGnSpC6ujDue2Qe1n/0Kbp07mRs4h1+2KG2jJDDKTmsksOrg7t2wpTrfoXDenRvUgcTxBbE+zIzQdSAUyWILG3b9h3GHsmXX31tkEOSRJLFapo5ez7eWfsB8vKc+O2kq3D8cUc3K8oEaRaixBmYIGrAJUMQWeJXcv7w8FzUbvveGGbJ4VZj84dYC+cuCODVNyLzmOvHl+AXp5xoyQEmiCWY9s+USoI0u5PesPidiiariHVsTqglNgqbK/MjuQI1cw7ksEtO2OXEvam0sKoay15aZWQZd6UH/c8+vbki6r9ngliGqmHGNBJE0eKWEUsHQaQn/1r7IR6a/bjhlFz6lUvAidILS19C1QvLja9U9lKYIIrtJpUEcRWV9CUg8Tqjon2tKRYMPP6O1fKSHWLFlvPqG2swd4Hf+EhuIkoCxKaXXnkd8xctNj4aPnQQCodfZNVM7kFsIxUnkEqCJGtLJsmnkiDS72UvvYqFVUsMCCQBJBFkkkfW5dF1mS447xxcedkIJZi4B1GCjZd5FWFDqgki7ZBDKDmUkkkebOzerRvufyRyIvjsfn1xtVf9RDATRLGmuQdRA64lCCItWbBoMV585XXDqHbt2mHPnj0wj9SrWRqRYoIooscEUQOupQgirZGTdjl5l+mwQ7vj9ikTcECH5G4lMkHU6pl30hVxaymC/Lhrl3GEZOPnX0JAGMS4+fqrcMxRhytayj1IUsBxD6IGX0sR5P5HfPjPhxtwQIf26Nq1i7GhKAM/yN32bj85WM1YHmIp45bSHmTEiPJOezvtlvHJMjIFn3hiu1XDW4Igf9MW4o3VkUALN04sR49DDzHOXH23ZasRQkiSRHWoxUMsqzUbly+VPYjNnXRFi1tGLF0bhaY3sZPza8oux1mnn2J89dkXmzD9oTn44cddSU3WmSCK7YYJEgEunQR5ZskKPB+KBMQfO+oSDBpwdoPa/M+HH+H+R+YZn6ku9zJB2gBBBo+4vEf79u0zdohVXalttgpjqoZYy2texVOB6AbhxRdh+JDIBmF8enPNWjzmiwSAUNkwZIJYrdkWHGIpmpCRYqkgyGtvrsGc+dEjJhcMwOiRDY+YxAOTzJETJohiM0vlEEvRhIwUS5Yg7/77Qzz4t8ghxQFn90N5I4cU48FRPbTIBFFsZkwQNeCSIchHn3yO6TPnYG9dnaVj7vEWqhx7Z4Ko1XNKl3kVTchIMVWCfPX1twY55EWp44+VF6XGIS8vzzYG8xYEsCp6cerXV5fg1J83fXGKCWIb4ogA9yBqwKkQZPv3O4xdcnnVtmeP7sa+RtcundUMkAEgoldv8/PyMGXSr5q8essEUYSZCaIGnF2CyEAL02fOw/qPPzWij0hyHNGzh1rhUalI8Ia52PDJxmaDNzBBFKFOJUGGjRp7EvZk7oWpJc/M/7dVGO0SZObsBXhnbeTZ8Fsmj0efn/ayWlST+ayG/2GCKMKdSoLwTvonRvAFGd09NmlPVuEf/3zb+GjSVWNxWt/kAsbFV7WVAHJMkMwjyB5Fk+2KWQqm3VI76ZXPhRBc8Q/D5vIxHgw4x3qgBTuOyhhZf57xN0MkUQhSJogdNGPyprIHUTQhI8WsDLGWLH8ZgcWRoNWjRrox9ILzWtTXpoJYM0EUoWeCqAHXHEFefu1NVDzV8s8exFvf2DMITBC1euZlXkXcmiLIjp0/4NG5Txqaz+9/FkpHX6pYippY7EM6RRcPwbAhA/nKrRqUvA+iiltjBJEhe+ROt0xnnnYKJpRfrlpEUnLxT7GZj/jwG4U2YeUhlk3AotmbeyddZpONMZ0p9jFP0w4miM0aYYLYBKwRgvzpr4/h408/r1d2/dVj0aF9ezXlKZSSNxJjExPEJrhMEJuANUKQqdNm4vMvvlJT1opSTBCbYLuLvLNBuEqKBf1am77s5C4ccyQ581O7yxaDV3WlFgl+ayFZGWJZUNOKWWTVCmPYF3h+GZYsk09Fky/o95XbMcLt8crIdgMFMCjk1yLvTdtIMfJTQ37tLhuiSEvjdHu8Mh7tLyKGOu4J+uf9zo7RrZlXEgSO/P+2RJnJbhS2hE0tpZMJYhHZgmLvWCEQubUTSd8G/Zq9544slpWKbFGCROL/pzgJ0Bshv2+UVbWxPUingw60KtZm8r3+9rvcgzRVG0MLx/d0OPa8DKA3CTwrCMZiPYEWVPt9TT9UkaJqlt1tz0P29tr8XX5NdUArS5HaVlFjEqRVCmuxQniI1Si07qKyR0FiAoCwqMPxzjyar0MMAGEvAf2qK7W1LVYvANxFZdeBxMz6MnQxIFhV8WpLlplK3ZIgghyHpFJnOnTZnQfkxBzE5fEWEhCIVAjdH/T7bhpWOOE43fHjesj3PQTWBANaah7yTlDrruLyE0jXl4Nw1DE99uKzr/MhgOdCfq11t5zT0SIzvMysJ4i7uKw7QSwXAqcCWAc978Jg1ZwvZL25i8uqIMRI+bfQMTVUZW+VwUrdG9EX2+tBCPSX+R+dvBnXPnBYhKpAZbVfu8yKHs6THgSynyAe7wIAY4wGqYvzq6sqImexo8nt8crFfNliwyQc51QH5kUuMqQgDSnynugkugeIkPDXhf/DRWfsxPK3O+LBqp/Uk6RO4I5lAS0S3pxTm0Igqwni9pTdB4gbDXIIMao6ULFI/h1eN/g2x+7ds6jvqq0XXz6+W93ePTKAmnxKbW/Qr1m6T9FcLbqKvLcQ4WYAXWXeCSO2Ytg5O+rFFr/aCbOXGF/JVCsEpoUC2r3N6eXvWxeBrCWI2+OdBeAagxwQM6r9Fb+Rf9dtGDyOBOYQsMrRZ6VxYWHIpeVuZ54eOXEHbA/6tS7JVIO72PtPCJwjdXTpqOPPV32Dow/du5/KtZ+0x61zYlaZCa8HK7VzkymbZVOLQFYSpMDjXSSA4ihUy4N+bYj8W2y44HRdUOTRbWOfVVTl9XnReGbVVVw6ngQZV9QIqN1D7XqtqJy9zS7c4oOBvQpu7/WplBtwyg+45fItTar4/Jt8THvqEGPiLlNb3923i0em588qghQXX3vQTvHDvH3kEP6gv8IkCvQNg38QAgfEVpoOTM/vs/K3BkkuKyslXWjR77c5HDRqySJf5IqcjVTg8f5DAEbvdNABOu4s/RYnHb3/jduX3z0Q059usHJaE/RriYPV2iifs6YOgawhSEFh6S+Fk6aZQxsCzaj2+4xhlUzhdYM3gnBMIugEoTiv90ojaKy7uOw6oesPEZE8ChOGEHODgYqr7ULu9pSWAHQbgBOk7K8KanHpgO/r1VTWdELFsvo5SI0gMSNUWRF5+5hTm0EgKwji9ngnA5gm34GMIntD0K89YKKsrx/8kgAGNoW6HqZB+SetMA6juYvLRkliAOgYkaF1ur73iqVVC9bYqbnBI0sOae90zDJ7tLu93+L0PruwZn0H3KF1j6gS9KdgwPd7O3o5b+shkNEEKSj2nqLrmEKEyFERwusk6N5qv+85+d/vN5zXvaNoJ+cjTZLDhFsIePNOWFkRJcnJpOsBQWTGuNxDwJxqvzbRbvXEzoli90EgaFYw4LvWrj7O33oIZCRBhhZe2dNJedcLwi3RX/g6QNz9zaft7l29eraxXCQ+uqh/OKzPIMKZtuAkMdXZ+8X6Y8nuotKZIJLH4yO3gQRqQWJ20F8hl3AtJ7fHK0/L9TV30kF4PlipjbCsgDOmBYEUEEQG5/sZgAajGivO2D7u3m/8+Pzu/9tzGwFT63/1geecJP6wpLKifnUqvGHwtQTcFz8ht2KU0RERnie0G0e9g9/K/7su9faiPKoCxGkxOrZC4OZgQPu7Fb0FRd5fC0L9sA8QQ4P+imVWZDlP+hBIliAFHu8PAjgAAiODAS0S9sVisk0Ql8d7p0kOAWwiganxDTS8bvAjICQ9bCFgUzhMY8x5ifTJ7fHeDIHfgdDJ9NHOsqwE+8hudcf999u8l0MBrcQiTpwtjQgkQxB3cdnJEOI/hvlOcXzw6YqP7biSFEEA8R2EuCsYePzh2ELD6y+cDoib7BjSSN6PHUJcQSe8+Kb5vdyZFxATCah/5d4OQVJgE6toZQSSIYirqPR6InqQgA+r/Zrtm6G2CRL9FZ9MhFuEQDRUuFglhOOPocC+/Qqx4YKLdYF7APq5Ep6ER529V9ZPxl0erxyy3QGYZRpzkc1Cxw2hZ7SFSmWwUEYgoEqQyDk8fCCdFIDt67ZSTokgJqpy5xuCxsu7HIYygbnCQX8NVvqMkOLi4wu76Lq4HwLj7NSEA1REfVZUSZkRo8sPr9srqgXJk8AisvcOx4cIi7uYGHZQzdy8qgRxF3k/BaEXCJv0cLszllbNth3hIimC7Bv2lN4IkNwDcQJihwDdF3spJrzhgjshqH5S31RVOYhOp94r5J11DC0qn+hw6HLj0dgLIeDLsEP8ZumiyIFHTrmBgF2CuDylgwkkn+c1NrqEwLBQQDPP+dkCLSUEkSUOKywfpDuNxmwu6c4L+rX6nsMKSRz54YPp2Jra6DBO7oD/yfRGkFgcqqy4xJZ3nDkrELBKEDkhJyEmCuxbIHKA+i/x+15TBSJlBJEGDLzU2/XAPNwrAONYCBGtqK70XWQaV7du8EIiJAxS4BDiSDrhxS9lXlex9y8kMCUiJ7YKOBYBwnb3qAoKy7UtBIjghUAvIaCBsDHeOhKQk++zjeGUmQhrhMCNKmGCYvWnlCCm4tilYBDWBys14yyUTOF1g98GReYsZnI4MJKOX2msT7sKvV5ywNe2qoityRwExEeCaC7t6DQjGJy5O1m7W4QgRkOP2S8BsCvo1+pP8IbXD5Zxpo6MGv8HZ5+VcnWqoQzhLQD/g4junifrKctnLQIEfAuILwTE8qD/8WAqHW0xghgNvrh8JAndWI0CYWmwUnPJP8W6Qafq5JB7G5qzz0pjODa0uHSYQ9ALxveKS3KpBIZ1MQKRZtvCqcBTdomAiGzvC3FtMFAhbxlCbLjwEuq9wjjQOGTk2EOdTqccWx4ggFDIr7lb2CxWzwhYQqDFCSKtcBeX/g6C/hjhCLliNxQjPU3pchJ0oTwJzNddLdUbZ2olBFqFINH5xbMEyGXaDeE8Grxsoc+Id7tvrkJfhIW4KJnIImLDed2p9yvG4UZOjEAqEGg9ghSXnEvC8UokSJx4OBiomGQEcxO6PAHcEaApQb/vPlWnJNHOPGHXmW+t6/CW3ch9qmWyXPYj0GoEMYZaHq/c+JMbgBDk+D+Hro8Xco2bsOYg7Dy3srJS6ZnmIaPLjnLWifqXZMJ5dLTZQ2V/FbKHLYlA6xLEPaYzOubLXqQvAHkPw4h0AojSoL8iNuK7LZ+jF6quqxeK9lC2lHBmRiABAq1KEFl+QVHZ5YJE5DnWyJJuUqtWsfstMrzPvU9FIpTwUjG391Qg0OoEiQ61XjeOBkSePri42u8z9j/splhyyIiJMnLirMUHY8nrBzFJ7ILJ+RMikBaCRI+TlEqLVGJQRd84vB3ABVLHGX1+xFTvd/UOTtW64e319Rv3LwrgD8meyeH2k5sIpIUgyUDt9nhnAJAhhow0ueh/uLDfzv1UrljdEQ8EIsGpo+mBoF+7IZmyWTb3EMhEgshbU+jRtQ43X7EFfY5sfOFr/RftMO3JQ/B1bZ5Rs3w1N/caeLIeZyxBpONnnfQj7hi7b2gVD8bd87vhzQ/2RTllgiTbXHJPPvMIMmZMZ7E7/wYzskr7fIEZE79uELldBqO+4ZEe2C0fdouuaFH7vTOCTzyxPfeqmD1OBoGMI4jpbPT22FQzpKh281fo1qUO323Lg3daT5MYVUR0u3lHPhmgWDY3EchYgpjVZYYUPaRzGBW3bELpvYdjy3b5Dg9qwgeEhy+bP3//GXxu1jV7rYBAxhNE+uzyeF8gYJh8C2TV2gPlkeF/hx35I5ZVzjHeCOHECKgikBUEKSgqLRJExtMJxpyDxNWhyorZqqCwHCNgIpAVBJHOmA/mCOC1kF8zXrPlxAgki0DWEMToOTZcdD71Xv5ysqCwPCOQdT0IVykj0BIIZFUP0hIAsc7cRoAJktv1z943gwAThJsII9AEAkwQbh6MABOE2wAjoIYA9yBquLFUjiDABMmRimY31RBggqjhxlI5ggATJEcqmt1UQ4AJooYbS+UIAkyQHKlodlMNASaIGm4slSMIMEFypKLZTTUEmCBquLFUjiDABMmRimY31RD4f7jmtSLkpuWCAAAAAElFTkSuQmCC;" vertex="1" parent="1">
          <mxGeometry x="388" y="530" width="136" height="136" as="geometry" />
        </mxCell>
        <mxCell id="AcUgybYXmRdaUsrV0XQZ-23" style="edgeStyle=orthogonalEdgeStyle;rounded=0;sketch=0;orthogonalLoop=1;jettySize=auto;html=1;exitX=0;exitY=0.5;exitDx=0;exitDy=0;shadow=0;entryX=1.027;entryY=0.277;entryDx=0;entryDy=0;entryPerimeter=0;" edge="1" parent="1" source="AcUgybYXmRdaUsrV0XQZ-7" target="AcUgybYXmRdaUsrV0XQZ-17">
          <mxGeometry relative="1" as="geometry">
            <mxPoint x="205.86708286830367" y="336.8571428571429" as="targetPoint" />
          </mxGeometry>
        </mxCell>
        <mxCell id="AcUgybYXmRdaUsrV0XQZ-33" style="edgeStyle=orthogonalEdgeStyle;rounded=0;sketch=0;orthogonalLoop=1;jettySize=auto;html=1;exitX=0.25;exitY=1;exitDx=0;exitDy=0;entryX=0.25;entryY=0;entryDx=0;entryDy=0;shadow=0;" edge="1" parent="1" source="AcUgybYXmRdaUsrV0XQZ-7" target="AcUgybYXmRdaUsrV0XQZ-6">
          <mxGeometry relative="1" as="geometry" />
        </mxCell>
        <mxCell id="AcUgybYXmRdaUsrV0XQZ-7" value="" style="shape=image;verticalLabelPosition=bottom;labelBackgroundColor=#ffffff;verticalAlign=top;aspect=fixed;imageAspect=0;image=data:image/png,iVBORw0KGgoAAAANSUhEUgAAAMgAAADICAYAAACtWK6eAAAWTUlEQVR4Xu2df5AdxXHHu/dJOkEqQBmkExBcGJvECCIBEb8sqgzBcNJJGBNkkhTYnKy3s0fwGR1lcCquFKJiXIDQD/sc3W3PWRK/UjYCI4ORkMARVEUEgjAUtmQwAZMgZJ1+GINNfId026mRH5SQpbezi2Z/3Pb8dVXbO9P9nf7cvn1vpgdBmiggChxQARRtRAFR4MAKCCCSHaJAEwUEEEkPUUAAkRwQBdIpIE+QdLrJXRVRQACpyERLmOkUEEDS6SZ3VUQBAaQiEy1hplNAAEmnm9xVEQUEkIpMtISZTgEBJJ1ucldFFBBAKjLREmY6BQSQdLrJXRVRQACpyERLmOkUEEDS6SZ3VUQBAaQiEy1hplNAAEmnm9xVEQUEkIpMtISZTgEBJJ1ucldFFBBAKjLREmY6BQSQdLrJXRVRQACpyERLmOkUEEDS6SZ3VUSBwgEye/bscWPGjBk3PDw8viJzIGECQK1W2/buu+9uX7Zs2fYiCZI7IEqp0wHg0wBwPgBcXCRxxJfcFHgIANYBwBNE9JPcvACA3ADp7Ow8fnh4uAsRuwBgdJ4iyNiFVWAXM/fUarWevr6+1/LwMhdAlFJzAeAfAaA1j6BlzNIpMAAAtxDR4qw9zxwQpdR9AHBZ1oHKeCNCgfuJaFaWkWQKiFIqBACVZYAy1ohTgIgoyCqqzADxff9LiPjdrAKTcUauAsw8R2u9NIsIMwFEKXUWADyVRUAyRmUUOJuInnYdbSaABEFwNzNf4ToY6b86CiDiPWEYXuk6YueA+L4/HRFXuQ5E+q+eAszcrrVe7TLyLAC5AxG/aBnEDma+lZk39Pf3P255j5iNAAXq9fp5iDgFEb8GAEfZhMTMd2qtr7KxTWvjHBCl1OsA8GdxDjLz+rFjx7b39PS8HWcr10euAl1dXYcNDg6uQsSpFlFuJqLjLOxSmzgFxPf9UxHxOQvvdhKR1X8Ni77EZAQooJTaAQBHxoXCzKdprZ+Ps0t73TUgHYi4LM45Zp6ltb4/zk6uV0cB3/cvQ0Tzo3LTxsyztdbL4+zSXncKiFLqNgC4Ps65lpaWw+WjVZxK1bpuPmoNDQ29ZRH1fCK6wcIulYlTQHzffxgR22M8e5aIpqTyXm4a0QoopTYAwF81C5KZV2mtZ7gSwjUg6xDxvJgAH9dam6Xu0kSBDyjg+37u+SOASFIWVgEBBACYWZ4ghU3RfB0TQASQfDOw4KMLIAJIwVM0X/cEEAEk3wws+OgCiABS8BTN1z0BRADJNwMLProAkhCQIAgmMnMHM18KAId7nvcwAKwIwzDRcnrf9zsA4POIeC4AvAoAK4nopoLnywfca+1+9BKAqM4ApxbZbwTYCggrBxa23ZzUTwEkASBmObTneaZW0v7aPNsEV0rdCADz9tPJFiI6Nukk5mE/fu6aGxH3G0Me7liOieujodHTti85/3eWN4AAYgmIqbY4evRos2LzmCbiXkpEK5uJ39nZOTOKIlOU7EBtBRFdbjuBedhNmPvoDMboR3mM/WHHZIA7ti1qM09vqyaAWALS5L/++0Lb/OColHowrnojM0/TWq+xmsEcjCZ0r7mPS1w2qeaNGbdlwflmKXtsE0CyB+RNADgiZmZuIKL5sbOXk8GE7rUvMfCf5zT8hx6WEaZuW9j2pE1HAkj2gJjNW01fal3vL7BJjGY2ZQckwuHTty9st9lEJ+8gJhFsPhrZFH5g5iVa62uaJZfF/pR3PM87Ja86sDbwTLhuzXxm+KqNbRFtBha1WS+QlSeIJSBmouP2BiDiyWEYbmqWFPV6fZLneWub1AS2/jYsr+Qbf+1jregN/xQAxuXlQ9pxGfjqbYum9dneL4AkAKQByb3m94t9BN4SRdEVtlVQlFLmftPPvu0hIvqs7eTlaTfh2tVn8B9+AyoNJIxw/baFbbcn0U0ASQiIEdc8BRBxMiIe6XneE1EUvURE/5dE+Hq93up53mRmNk+UN5j5v4jolSR9FMF2z4+FGE0EhloR/NmvD+gNjBq1a/Ubt7VvTuqjAJICkKQii315FRBABJDyZm8GngsgAkgGaVbeIQQQAaS82ZuB5wKIAJJBmpV3CAFEAClv9mbguQAigGSQZuUdQgARQMqbvRl4PuIBUUo9AACfi9HyFSL6RAZ6yxAlU0Ap9d8A8PEYt81uULPD1EmzXjiWZnSl1CIAMGeix7WTiOjFOCO5Xh0FlFKfBICfW0S8mIi6LexSmbgG5CsA8K04z5i5T2t9dZydXK+OAr7v9yJip0XE1xLRty3sUpk4BcRii+v7Ttusxk0VodxUOgUaxTk22jjued7FfX19zrYgOwWkq6urZWho6AUAsNoBx8wXaq0fsxFGbEamAjHFOfYN+hctLS2Tenp6hlyp4RQQ47TNfvK9g0PEncxstmSa1Z8DrgKXfgulQKs5xxIRP8XMsceu7eW58/07zgEJguBEZjZPkbEHmBLzIvazxvWLCzVt4kxeCpjKM4MAcAoAnHQAJwYRcVIYhi+7dNI5II2nyK0AsO8xWS8y82ZE/DQAjHYZpPRdWgV2MfMTiGhOSTbfau3dbiMic2S005YJIA1ITPXD6Y1oTI0rU6StNDvinM6CdB6nwHYAeGOvghuriSjuaL+4Pq2uZwZIvV7/mOd5ryLiJmaeaOWdGIkCeynwXu5EUXRCf3//L7MQJzNAGk+RRwHgM1kEJmOMWAUeI6ILs4ouM0B83/8SIn43q8BknJGrADPP0VovzSLCTABRSp0FAE9lEZCMURkFziaip11HmwkgQRDczcxXuA5G+q+OAoh4TxiGV7qO2DkgNlURXQcp/Y9MBZi5XWu92mV0WQByByJ+0TKIHcx8KzNvsC0EZ9mvmBVcAbPEBBGnIKL5beMoG3eZ+U6t9VU2tmltnAOilHrdLCOIc5CZ148dO7a9p6fn7ThbuT5yFejq6jpscHBwFSJOtYhyMxEdZ2GX2sQpIL7vn4qINpW8dxKR1X+N1JHKjaVSQCllzhCJXZfFzKdprc0Pz06aa0A6EHFZnOfMPEtrfX+cnVyvjgK+71+GiPfFRez6uAqngFgcN7An/paWlsPlo1VcKlTruvmoNTQ09JZF1POJaN91fha32Zk4BcT3/YcRMW7NzLNENMXOXbGqkgJxR14YLZh5ldZ6hitdXAOyDhHPa+a8zQE6roKXfoutwIivalKEAIudAuJdMwWKkD/yBJEcLawCAogUjitschbBMQFEAClCHhbWBwFEAClschbBMQFEAClCHhbWBwFEAClschbBMQEkISCNinsdzGyKFR/u/eEo5BVhGJqCENbN9/0Oc5w0Ip4LAK8CgCmAfJN1BwUwnND96OUMwz6Ad2oB3GnqAiL0bj3swnkwD6MkvgogCQCJqbhnXUCsSSG7LURkKq0UvrV2r70ZgP+p8I7u7SDiM4Nj3m1765aZb9r6LYBYAjJ79uxxo0ePNis2j2ki7qVEtLKZ+Ba1glcQ0eW2E5iHXWv3I5cAYNM48/DLakyEewYWtlnvAhRALAGxKV9qs2RFKfUgADSt3sjM07TWa6wmPAej1u41PwAAZ+dhOA+pBq0Dt7dtsxlHAMkeEPN4PyJmcm4govk2E5iHzYTutS8xsFUx8Dz8ixuTEaZuW9hmai/HNgEke0DM5q2mL7Wu9xfEZkWMQdkBiXj3adsXz7Da4CSAWAJiU/iBmZdora9pll8W+1Pe8TzvlL6+vtc+bCK7ur+1e+0tAOy8Jq0r/wcWtVmv/xNALAExk6WUutd8NXuAiduIiJeHYbip2cQ2viY2/Zx8ADvrb8NcJVBcv8de89iRu0cPvwDY9AuLuG7yul4fWNRmXTxQAEkAiJnRIAjmM7M5qu1P3pthRHyAma8noldsZr0ByXIAOGMv+y2I+C9hGPbZ9JG3zfjrHpmMjP0AUJ6NZgjXDixsS3RUmgCSEBCTmJ2dnccPDw+bTViHAsAzWutn0iSs7/tt5nwJZn4dEZ8gol+l6SfPe8Z1PzLNAzyJGWp5+tF0bOZtXhSt3trTbiq0J2oCSApAEiksxqVWQAARQEqdwK6dF0AEENc5Vur+BRABpNQJ7Np5AUQAcZ1jpe5fABFASp3Arp0XQAQQ1zlW6v4FEAGk1Ans2vkqAPJ9swQkRsjSbFRynRDS/wcVUEqZo5+b7QEypUfv1Vr/rSvtrBeOpXHA9/35iPjVuHsR8eS4dVRxfcj1kaVAY0nQxriomPl2rfX1cXZprzsFRCn1ZQDoiXOOmfu01maNlTRRYI8Cvu/3ImKnhRxdRPQdC7tUJk4B8X1/JiI+ZOOZPEVsVKqGje3Tw6jBzBdrrX/kShmngHR1dbUMDQ29AABWO+CiKDpfziZ0NdXl6DemOMe+QfyipaVlUk9Pz5Cr6JwCYpy22U++T3CrEXGzWWXrKujGfx7nsb/nv+d5HwiFmTMb26WGB7NvZj4OEc0L+fQE/Trfv+N8ooIgOJGZzVNkbJPAzV6OFwHgE+bAKWY+DBE/kkAoMS25Asz8a0Q0B7iap4F5OZ8MAB9vEtag2a4QhuHLLkN3DkjjKXIrAPzRMVmIuCGKot8j4ul7b4JyGbD0XRoFfsvMz3uedwgz729j2G1E5HzrcSaANCB5AAA+Z/5GxN9HUfSy+Q9QmukSR3NTwHwCQcQTAeCQhhOmEmYmpY8yA6Szs/PYKIp+1ni/MJ815SNUbilXyoHfAQDzXjqhUVjD/IjovGUGSOMp0g0AC51HJQOMWAWY+Rqt9ZKsAswMEKXURwHgf7IKTMYZ0QqMI6IdWUSYGSA2C8+yCFjGKL8CiPjDMAz3vM+6bpkAopQy32CZb7KkiQIHS4GvEdFtB6uzA/XjHJCrr776L4aHh/8DAI5yHYz0XykFdtRqtXN7e3tfchm1c0B831+AiNclCGI1AGyV95UEio0MU/PNpjmfZUaCcBYTkfnix1lzDohSaj0AfMomAlmLZaPSyLYJgqCTmXsto3yWiJxWl3QKyJw5cz5Sq9V22gQrq3ltVKqGjVLqaADYYhmt02+0nAKilDKPy9ilyLIfxDIVKmSWYJHrTCIyZ1U6aa4BMefo3Wzh+UlEZBYrShMF9iiglPpLADCLXOPa14nom3FGaa+7BuR7ABC3X/gVIjKreKWJAh9QQCn1SwA4PkaW7xPR37mSzikgNj8O2pwt6Cp46bfYChQhfwSQYudIpb0TQKQuVqUBiAteABFA4nKk0tcFEAGk0gDEBS+ACCBxOVLp6wKIAFJpAOKCF0AEkLgcqfR1ASQFIJ2dnWdGUTTVlAcCgJ+mXWYQBMEsZjYF7d4eNWrUj5csWfLzMmXjxHkbx+x8a/PfmB/SmPdoUciGyC9H7G3avvii55M6KIAkAGTevHneli1bzC/zn99H6A3M7GutrSbA9/3piPivAPCxvfth5m9precmncQ87CfMXX08ex4Bw4V5jJ9izN8gR5duXTz98ST3CiAJAFFKPQgAFx9A4F8DwAlE9FazCQiCYLKptdTEZgERxVajTzLJLmxbu9euA2BzVnypGnq1k7cu+MwmW6cFEEtAgiC4gJkfayYsM39Da/3PzWyUUu/X5jqQXRRFJ/T395s1QIVs4+euuRER5hXSuXinNh7y5pgpry0/fzDedE+F93WI2PQfgeulSqVYaqKU+gYAfD1G1E1EdHIMIO8CwOiYfjqI6A6bCczDZvx1a5chc0ceYx+MMWsenLRlQZvVym0BxPIJopRaBABx7wcHC5AvE5F5Rylka+1eY/Y+tBfSORuncPicgYXtT9mYCiD2gCgACGNE/R4R/X3ME+RXpjJfM5soii7o7+//d5sJzMOmtXuNKbzndB+2y7iiUbuP3j5/hqk5ENsEEHtADmXm1xBxXBNV24hobQwgAQD0NbF5hojOjJ25HA1ar1szExisDiXK0c39Do2AC7Yuusj6SxABxBIQo3YQBJcw88oDTPpNRGT14qqU0gBQ308/Q7VabWpvb++zRUusff0p44s6Iy7ftvCi2Um0FUASAGKErdfrk2q1Wjczz2wIvRkR54Vh+MMkwgdBMJuZDVCHNu77t927d9+6dOlS20IBSYZzYnt099opEfJc4D0HzhS5EPgK5GjV1sXTlycVQgBJCEhSgcW+3AoIIAJIuTPYsfcCiADiOMXK3b0AIoCUO4Mdey+ACCCOU6zc3QsgAki5M9ix9wKIAOI4xcrdvQAigJQ7gx17XwVAHkbEuIV1zkvYO55H6d6RAkqp5wDg1GbdM/MqrXWSM0USeet0ubtSyhyRdX2cRy0tLYf39PS8HWcn16ujQEdHxxFjxox50yLi+URkjvhz0pwC4vt+ByIui/OcmWdpre+Ps5Pr1VHA9/3PmsM64yJm5tla68TLWOL6fe+6U0ASlLDfSURyhqHtrFXATin1vwBwXFyozHyabT2CuL72d90pIGZAyxL2wMzrx44d2y4ftdJM48i5p16vtyLiWkScZBHVZiKKhciinwOaOAfE9/1+RJxj6eQOZr6VmTf09/cnqoBh2b+YFVSBIAjOYeazAeAmAPhTGzeZ+U6t9VU2tmltsgDElNlZldZBue+PFWDm7Yj4EiIuCsPwB0k0UkqZ3ZlmT7tJyPXmc/6oUaN6lyxZ8jubfpRSn0TEbzKzOTzT6X/vOH+YuV1rbU5FdtacA2I8D4Lgbma+wlkUFe6Yma/RWi+xkUApdScAfGE/tk8ioh+GYdOSPI3/8k/ajOXaBhHvCcPwSufjuB6g8R5yFgBYbdTPwp8RNsYru3btOmfZsmXbm8Xl+/63EbGriU3s71FKqXv3U7gvLznPJqKnXQ+eyROkAcmNAKWt5+R6Hj5U/4j4lTAMe5p1opTiuEGanVMfBMFEZt4Y10cW15l5jtZ6aRZjZQZIAxJzJLSzXz2zEKygY6wkoktdAuL7/j80SrbmLQERkSm+kUnLFBB5kjib08VE1LQU0Id9gvi+34aIjziLwK7j+4lolp3pwbHKHBDjtu/7X0DE+QDQenDCqHYvNt/mWLw//Gb37t0fXbp06W/3p2ZXV9dhQ0NDpgL+MTmoPQAAtxDR4qzHzgUQE2RnZ+fxw8PDXY0Xx7hyoFnrUqbx5hGR+e2gaavX6+d5nreuidHlRLSiWSdBEHQyc2/cWAfx+i5m7qnVaj19fX2vHcR+rbvKDZD3PFRKnQ4A0wDgrwHgAmvPxdAokOjzeONF26xbOmMv+UziLbeBzNzTKCRuvlY2Z6u4aqYwnoH5CSL6iatBbPrNHZB9nWxMoilCPdEmgIrabIqi6D/7+/s3p4m/cUbKmcz83ODg4I/vuuuud5L001hpa6quT05yX4ztJkTcGPdbzEEcz6qrwgFi5bUYiQIZKSCAZCS0DFNOBQSQcs6beJ2RAgJIRkLLMOVUQAAp57yJ1xkpIIBkJLQMU04FBJByzpt4nZECAkhGQssw5VRAACnnvInXGSkggGQktAxTTgUEkHLOm3idkQICSEZCyzDlVEAAKee8idcZKSCAZCS0DFNOBQSQcs6beJ2RAgJIRkLLMOVUQAAp57yJ1xkpIIBkJLQMU04FBJByzpt4nZECAkhGQssw5VRAACnnvInXGSkggGQktAxTTgUEkHLOm3idkQICSEZCyzDlVOD/AW9Jh278uySvAAAAAElFTkSuQmCC;" vertex="1" parent="1">
          <mxGeometry x="387" y="268" width="139" height="139" as="geometry" />
        </mxCell>
        <mxCell id="AcUgybYXmRdaUsrV0XQZ-8" value="" style="shape=image;verticalLabelPosition=bottom;labelBackgroundColor=#ffffff;verticalAlign=top;aspect=fixed;imageAspect=0;image=data:image/png,iVBORw0KGgoAAAANSUhEUgAAAMgAAADICAYAAACtWK6eAAAINklEQVR4Xu2cwW5ctxIF5Z/W1l5rPnoCCbATWFLUuizOaZKV5QPn9mF1FxtB8PTjdrv9vN/vv578RwISeEfgx+v/oiROhgQ+JvAmiJI4HhL4QhAlcUQk8J7Anw3iJnE8JFAQxE3imEjgXwLvNoibxPGQQEEQN4ljIoGnp083iJvE8ZBAQRA3iWNyMoEvN4ib5OTx8O5lQdwkDsuJBL4liJKcOCJn3/nbgijJ2QNz2u0vCaIkp43Jufe9LIiSnDs0J918SBAlOWlUzrzrsCBKcubgnHJrRBAlOWVczrsnJoiSnDc8J9wYFeQEYN6xN4GXl5c7mVBBSJp+K05AQeItMEBnAgrSuTtmixNQkHgLDNCZgIJ07o7Z4gQUJN4CA3QmoCCdu2O2OAEFibfAAJ0JKEjn7pgtTkBB4i0wQGcCCtK5O2aLE1CQeAsM0JmAgnTujtniBBQk3gIDdCagIJ27Y7Y4AQWJt8AAnQkoSOfumC1OQEHiLTBAZwIK0rk7ZosTiAlCF46TNEALAs/Pz+j/7Zue03I4unCL7hgiTkBB4i0wQGcCCtK5O2aLE1CQeAsM0JmAgnTujtniBBQk3gIDdCagIJ27Y7Y4AQWJt8AAnQkoSOfumC1OQEHiLTBAZwIK0rk7ZosTUJB4CwzQmYCCdO6O2eIEFCTeAgN0JqAgnbtjtjgBBYm3wACdCShI5+6YLU5AQeItMEBnAgrSuTtmixNQkHgLDNCZgIJ07o7Z4gQUJN4CA3QmoCCdu2O2OAEFibfAAJ0JKEjn7pgtTkBB4i0wQGcCCtK5O2aLE1CQeAsM0JmAgnTujtniBBQk3oJrAejGVVOc9kfCac40P/+6+yeTSzdOQT4mQHNWkOqkDZ6jG1eNQze4Wjd1juZM83ODuEFSbrzVVZAo/uvF6cZVk9AvYLVu6hzNmebnBnGDpNxwg0TJDxanX7ZqHPoFrNZNnaM50/zcIG6QlBtukCj5weL0y1aNQ7+A1bqpczRnmp8bxA2ScsMNEiU/WJx+2apx6BewWjd1juZM83ODuEFSbrhBouQHi9MvWzUO/QJW66bO0Zxpfm4QN0jKDTdIlPxgcfplq8ahX8Bq3dQ5mjPNzw3iBkm54QaJkh8sTr9s1Tj0C1itmzpHc6b5uUHcICk33CBR8oPF6ZetGod+Aat1U+dozjQ/N4gbJOWGGyRKfrA4/bJV49AvYLVu6hzNmebnBnGDpNxwg0TJDxanX7ZqHPoFrNZNnaM50/zcIG6QlBtukCj5weL0y1aNQ7+A1bqpczRnmp8bxA2ScsMNEiU/WJx+2apx6BewWjd1juZM83ODuEFSbrhBouQHi9MvWzUO/QJW66bO0Zxpfm4QN0jKDTcIQZ5+YYhMO36DfnmrjOj+0vdov0FogNXGnXaOHqwqP7q/9D0UpNrJzc/Rg1XFpSBVUs3+XWAw9nI/V5CPW+YGWW6U5wRWEAWZM1mbfFVBFGSTUZ5zDQVRkDmTtclXFURBNhnlOddQEAWZM1mbfFVBFGSTUZ5zDQVRkDmTtclXFURBNhnlOddQEAWZM1mbfFVBFGSTUZ5zDQVRkDmTtclXFURBNhnlOddQEAWZM1mbfFVBFGSTUZ5zDQVRkDmTtclXFURBNhnlOddQEAWZM1mbfFVBFGSTUZ5zDQVRkDmTtclXFURBNhnlOddQEAWZM1mbfFVBFGSTUZ5zDQVRkDmTtclXFURBNhnlOddQEAWZM1mbfFVBFhUkNX/034yt3iM1qNV89DmaM82v/Z8epRtS/R7duGpdusHVuqlzNGean4J8Mhl046oDSDe4Wjd1juZM81MQBUm58VZXQaL4rxenG1dNQr+A1bqpczRnmp8bxA2ScsMNEiU/WJx+2apx6BewWjd1juZM83ODuEFSbrhBouQHi9MvWzUO/QJW66bO0Zxpfm4QN0jKDTdIlPxgcfplq8ahX8Bq3dQ5mjPNzw3iBkm54QaJkh8sTr9s1Tj0C1itmzpHc6b5uUHcICk33CBR8oPF6ZetGod+Aat1U+dozjQ/N4gbJOWGGyRKfrA4/bJV49AvYLVu6hzNmebnBnGDpNxwg0TJDxanX7ZqHPoFrNZNnaM50/zcIG6QlBtukCj5weL0y1aNQ7+A1bqpczRnmp8bxA2ScsMNEiU/WJx+2apx6BewWjd1juZM83ODuEFSbrhBouQHi9MvWzUO/QJW66bO0Zxpfm4QN0jKDTdIlPxgcfplq8ahX8Bq3dQ5mjPNzw3iBkm54QaJkh8sTr9s1Tj0C1itmzpHc6b5uUHcICk33CBR8hZfgoAbZIk2GTJFQEFS5K27BAEFWaJNhkwRUJAUeesuQUBBlmiTIVMEFCRF3rpLEFCQJdpkyBQBBUmRt+4SBBRkiTYZMkVAQVLkrbsEAQVZok2GTBFQkBR56y5BQEGWaJMhUwQUJEXeuksQUJAl2mTIFAEFSZG37hIEFGSJNhkyRUBBUuStuwQBBVmiTYZMEVCQFHnrLkGAFuR2u/283++/qMv7V00okn7nEgFakNcQpCQKcqmt/ogiMEMQUhIFoTrtdy4RmCUIJYmCXGqrP6IIzBSEkERBqE77nUsEZgsyKomCXGqrP6IIPEKQEUkUhOq037lE4FGCXJVEQS611R9RBB4pyBVJFITqtN+5RODRgnxXkrIgl27vjyTQlED1PyYqSNMGGms+gYokCjK/D1ZoTOArSRSkcfOM9hgC/yeJgjymB1ZpTuAzSRSkeeOM9zgCH0miII/jb6UFCPwtiYIs0DQjPpbAfyVRkMeyt9oiBH5LoiCLNMyYjyfwKsk/FmdATsnBaRMAAAAASUVORK5CYII=;" vertex="1" parent="1">
          <mxGeometry x="41.5" y="426" width="110" height="110" as="geometry" />
        </mxCell>
        <mxCell id="AcUgybYXmRdaUsrV0XQZ-30" style="edgeStyle=orthogonalEdgeStyle;rounded=0;sketch=0;orthogonalLoop=1;jettySize=auto;html=1;entryX=0;entryY=0.75;entryDx=0;entryDy=0;shadow=0;" edge="1" parent="1" source="AcUgybYXmRdaUsrV0XQZ-9" target="AcUgybYXmRdaUsrV0XQZ-7">
          <mxGeometry relative="1" as="geometry" />
        </mxCell>
        <mxCell id="AcUgybYXmRdaUsrV0XQZ-9" value="" style="shape=image;verticalLabelPosition=bottom;labelBackgroundColor=#ffffff;verticalAlign=top;aspect=fixed;imageAspect=0;image=data:image/png,iVBORw0KGgoAAAANSUhEUgAAAMgAAADICAYAAACtWK6eAAATN0lEQVR4Xu1dfZAlV1U/p997Q0XdMgFDALWYRFAIUQhUqYSv3cKPEKHcVWpRyRclphSLyczk9emZWMqkLDJ5tyf7RVJgCsgGkqhZYzYBJW6w2EiFBChkSSCoJDERV90ywiZaqYr7uo91p3ri7ua9ebc/bt/b06erpuaPuffcc36/+5tz+/b9QJBHEBAExiKAgo0gIAiMR0AEIr1DEFgHARGIdA9BQAQifUAQKIaAZJBiuEmtliAgAmkJ0RJmMQREIMVwk1otQUAE0hKiJcxiCIhAiuEmtVqCgAikJURLmMUQEIEUw01qtQQBEUhLiJYwiyEgAimGm9RqCQIikJYQLWEWQ0AEUgw3qdUSBEQgLSFawiyGgAikGG5SqyUIiEBaQrSEWQyBWgUSx/GZzPx2AHgvAJwBAC8BgNOKue5fLUT8H2Y+gohHmPkzAHCAiP7eP0/FI1MEahFIJozLAUD/tO25HQB2E9EX2xb4RojXukAGg8EViEgA8OKNAFiJGD5CRDMl6ktVBwhYFUgcx3cx87scxOVlk8z8SBRFr/TSOXFqJALWBKKU0lljILg/D4H7iOjNgkszELAiEKXUbwLArc2AwImXVxPRHzhpWRrNhUDlAonj+AeZ+QEAOCeXJ+0r/FZ5cfef9MoFopS6EgA+7H/ozj28nYje7dwLcWBdBGwI5FEAOEtwn4wAIp4XhuH9k0tKCVcIVCoQpdQvAcDfuAqmae0y83IURTrjyuMpAlULRA+thHBDshHxS2EYvsmwuBRzgEClAonj+OPM/NsO4mhqk48S0Sua6nwb/K5UIIPB4LOI+CttAK6KGPXarTAMN1VhS2zYQaBSgSilvgAAm+24ujGtElGlHGxMlNxFVSk5IpD8RIpA8mNWZw0RSJ1oj2hLBOKYgAnNi0Ac8yMCcUyACMRvAkQgfvMjGcQxPyIQxwRIBvGbABGI3/xIBnHMjwjEMQGSQfwmQATiNz+SQRzzIwJxTIBkEL8JEIH4zY9kEMf8iEAcEyAZxG8CRCB+8yMZxDE/IhDHBEgG8ZsAEYjf/EgGccyPCMQxAZJB/CZABOI3P5JBHPMjAnFMgGQQvwkQgfjNj2QQx/yIQBwTIBnEbwJEIH7zIxnEMT8iEMcESAbxmwARiN/8SAZxzI8IxDEBkkH8JkAE4jc/kkEc8yMCcUyAZBC/CRCB+M2PZBDH/IhAHBMgGcRvAkQgfvMjGcQxPyIQxwRIBvGbABGI3/xIBnHMjwjEMQGSQfwmQATiNz8bIYMcBoDvlIWZmX8MEWu/Dk0EUpY5u/WbKpCvAsBcEAT/2O/3n6wKoqWlpR/YtGnTTyVJMg8AF1Zldz07IpA6UC7eRhMFcmBqauri2dnZI8XDnlxzMBjsRsSZySXLlRCBlMPPdu2mCeRbRHSObVDW7CulbgSASy23d9CyfRfm/4uZ/x0Avp2m6YHFxcVHXDhRRZuNEggiLoVheFUVgZvYUEpdAAB/ZVJWyqyLwAMAsIOI9jUNp0YJhJm3RVG0vy6Qd+7ceeqxY8e+X1d7G70dZr4xTdMrFhcXG4NpowSCiO8Pw/ATdXWklZWVs9M0/VZd7bWknf8IguCd/X7/a02It1ECAYB9RLS9LmAHg0GIiKqu9trUThAEr+n3+w/7HnPTBALMfGEURbfYBlYp9XoAuBkAXm27rZba/14QBG/xXSSNE0jWmWaJaLetjqWUOh8A9gLAGbbaELurCNxNRO/wGYumCgQQ8TPM/Bgz/1OapqVTdafTmUbEVzHzWYi4lZl7PhO3gXy7hIg+5Ws8jRWIr4CKX7kR+DIR/XzuWjVVEIHUBLQ0Mx4BZj47iqJv+4iRCMRHVlrmEyJeHobhHh/DFoH4yErLfGLm66Io+qCPYYtAfGSlfT7dTkTv9jFsEYiPrLTPp4NEtMXHsEUgPrLSPp9EIO3jXCLOgYAIJAdYUrR9CIhA2se5RJwDARFIDrCkaPsQEIG0j3OJOAcCIpAcYEnR9iEgAmkf5xJxDgREIDnAMi36bwBwABG/PhwOHzStNK5cp9M5i5nPRcQ3AsAbytqT+rkQEIHkgmtCYX26SbfbvWFubk4fLVP5o5S6jJmvQMSfrNy4GByFgAikqn7BzP0oiq6tyt44O8vLy5s7nc4XbLcj9lcREIFU1BEOENEvV2Rropk4jj/EzEsTC0qBsgiIQMoiqOsz83IURVdWYcvExjXXXPOOIAj+2qSslCmFgAikFHxZ5SRJtiwuLtZ6VKdSiqvwXWysi4AIpIoOUvfRo5JBqmDNyIYIxAimyYUe7Ha7W+bn5783uWj5EnEcf4qZLypvSSxMQEAEUlUXQcRPh2F4cVX2xtlRSuktoF7uk7YduwP7IpAqQc/OxLqBiD5bpV1ta2Vl5Q1pml4GAPpHnnoQEIFYwvlxAHgYEb9S1j4zvwYAzgYA/VueehEQgdSLt7TWMAREIA0jTNytFwERSL14S2sNQ0AE0jDCxN16ERCB1Iu3tNYwBEQgDSOsae7qvTF66f9/l3WcmV+GiC8FgE1lbeWoLwLJAZYUNUQAET+nF3AS0RcNqxgXi+N4MU3TKxHxh4wrFS8oAimOndQchQAiLodhaHVl8/Ly8rmdTufTNXwbEoFIN68UgVuI6MJKLY4xlt30e5tlkYhA6iCzRW38FhH9aV3xKqX+DADeY7E9EYhFcFtnutvtvqiuFc0aXKXUAADIItAiEIvgttH0uUR0qK7AB4PB9Yj4AYvtiUAsgts608w8F0XRrroCj+P4LmZ+l8X2RCAWwW2daWY+0uv13jw/P/+I7eCVUpcDgG0xikAsEHktM9/W6/UOz8/PHy5rf2Vl5UeGw+GPBkHwVgDQ06cvKWvTZn39DQQR/7Df73/NVjv6fDAA+JMx9hMA0NsMvsLMXw2C4DFEfCpJkqdPOeWUp2dmZp6O4/jFALD6w8xn6N+IOM3MmwHgdcfZFYFUSOJjzHxZFEV/W6HNE0zt2LHjFcPhUAHANlttVGj3BgD4JjN/N03To2Xtdjqdaf0lnZl/fcQJkw8x8z2IeE+SJF9eXFz8ftH24jg+M01T/c/oLYj4E3IFW1EkT6z3bJIk59dxssmOHTteOBwOPwcAP1uN64218iQiXsfMnyei+2xEsWfPnhfMzMw8a8N2WZtNu6NwLxG9r2zQpvUnDDFMzTS13LPMfH0QBNeFYfjPTQ2irN9NE8jvENHHywZtWj8ban3HtPwGKvfJNE33LCwsfGMDxVQolEYJBBEvCsPw5kKRFqi0vLw83el02vTf8z5mVlEU3VUArg1ZpVECAYCPEdHv1cWEUupSALixrvYctxMRkZ6YKPTs3Lnz1GPHjr12rTIibmbm507BJKJ7Cxl2XKlpAvlfZn5nFEX32MZNT/umaXp3S+4K2U5E+/JgqpTS07RvA4Ct2ZTtqQb19SybFo3+ubfO1QAGvo0s0jSB6CAeZ+b3257mTZJkhZl/tSiwDapnLA6dJYbD4eXMrDPrdAUx6mObdvV6vZvm5uZKT1FX4M/zTDRRIGtBXIuI+9I0PRxF0b+WBefqq68+vdvt/jgAvKkJHwrLxpvVNxJH9i72IQDQwrDxHEXEXd1ud7dvQmmyQGwQ1SabRuLI7kiZBQCTIVRZ/I4y82wURTeVNVRVfRFIVUg2y85EcWTvGHqC4vglIXVFebDX623zIZuIQOqi3J92TMThw+ydfj/Z5vpFXgTiT8etw5NriGhxvYY8vHbufUS0tw5wRrUhAnGFfP3tPkREP7Nes0opPaSy9SJeJmJnIhGBlKGtQXXTNL1gYWFBL74c+QwGgyVE1DNVvj5ORCIC8bU7mPt1ByJ+g5kfTpLkP8dVW28FdAUrBu5ERP3x71C32z10/Mu1niLudrvTaZpuDoJgKzM/97XdPMTVkvo7yZa630lEIDlZ8qz4LBHtLuNTNlul74PPO437RPbtYm+e2SYtmCAILkVEPXX8wzl9P9Tr9bbkaS+n/ecVF4GURdBRfSKqhDul1NdzTuU+lV2mWmobbrZ2S99Br7f05nlq3fJQCchr0Sml9H8ivZ1SHrsIlFpYuOZa3veObCh3aZXDnDiO9aLG/XmyCSJuCcOwluvARSB2O7IV61Vkj+w/uF7Kbzq0urfX6221MbzJ1ngdzPF+coiIzrUC7klGRSB1oFxxG1UIJI7jvcx8iaFreuWt1ZFBAZHUMqslAjHsIT4V6/V6L5ubm9PXHRR68mQPPazqdrubbWSOk53PJgz00Mnk5f1xIjqzEAA5KolAcoDlS9HsJfmqov7kfPeo+xTHrYh4h2Fs1n0TgRgy4VsxZv5gFEXXFfFLKaXfPSbu52Dmq6Io0jNNtT5KKf3SPnEvDiLeFIah1S//IpBaqa+2MWb+WBAE14dh+E1Ty9kwRk/tTnqe6vV603UMrU52JMdZAEeJ6LRJgZT5uwikDHr+1H0UEb8EAI+uuRSG4cghWBzHs8y8c5LrrrLHml+mkwi2p3xFIJN6SjP/fisRvXeU66bDlyRJzlxcXNRLzp08g8HA6F0EEefCMCz10XK9AEUgTui32ygi/nEYhn80RiAT3z/0zFUYhi42Sp3gslJKr7+aNKN1JxHpgyOsPCIQK7C6NZodavGJomN718OrNb+VUnrKV5+cst5j9aOhCMRtX7bS+ril7dmyDr0caN3H9rh+Uvtrfzedjq7iw+k4n0Qgpmw1qBwivjYMwwdPdtlUIABg/fuCCZymy/BFICZoSpnnEAiC4PR+v/9kUYHY7HB5aDIVtE1/JYPkYawhZaenp7vbt2/XF9yc8PjQ4fJAaOqvzRk3EUgexhpSNkmSF4663Ma0w/kyxDL1VzJIQzqmL26mafryhYWFfymaQeQl/f+RkwziS6+u0A9E/OlRy09Ml5kw87YoivR6KKePUkp/AJy04/ApIjLd05I7HhFIbsj8r4CI54VheP8oT5VSPCmCOhYBTvJB/91wO7DVvSoiEBOmGlaGmS+MouiWMQLRy0dePiEk64sAJ0Ga7VkxuSR0NxHpAyCsPCIQK7A6Nzq205guAnT9om76DcT2cFAE4rwvW3HgfiI6b0wGMTp31/Uwy3TPSq/XO83mknwRiJX+6dxokiTJ6aOmenMMXcDVbJZp9gCAJ4ho4savMmyIQMqg53HdIAgu6Pf7I48aNV3yrq9KI6ItdYaZCVhv6DLp+NYPbhCB1Ml+vW19lIg+UGaYpeva3m9xsn85DtCuZcejCKTeTltna9995plnXrW0tPRMidms1aq2X4TX/MsxtNLCtb4fffUfRJWMycmKVaJZ3hYivicMw9vKZpE6Do7OIw4dj831V8fjJQIp3w99tnAzEV00zkGllMk3kbXqenffnI3LbPKKo84NXSIQn7t3Bb4FQfC2fr//d6NMmS4GPOE/KuLSuAMh8rqbvZDrS3vybJl9otfrvc7m1K5kkLxMNrv8HUT0a+tkEZP1TidX13fVL5W5jXYwGFyir0/IcTbwmg/WZ65EIM3u8EW8/w0i+vNRFQuciXu8GT1E25UkyZ0mJ6Bk513pA+H00hCTadxRLtd6R0jVQ6y/1DeTFmFQ6lhF4AEieuM6WUSfYGJ6Ju44M1oshxDxkC6QpunjQRCsioCZtX39U1QUJ7dZm0gqFchgMPgoIv6uVarFeCEEEHE5DMMrLYukkG8FK9UikkoF4uEVwgWx35jVgiDY1u/3x+7zyHm6ug8gWb9tqmqBnMPMD/mAnPgwEoF/6Ha7vzA/P394A2USqyKpVCAadKXUAwDwc9JBvUVgHxFtX8+77Gba/TlufHIdrDWR2BDIxQBwk2vEpP11EZgoEl3b9OA2H7C29fGwcoFkWUSvIj3fB+DEh7EIGIkkm5rda3AEqHOobSzPtyKQwWDwdkT8vHPExIF1EchzU1X21V1fpjPprNzcqOuFh2ma7kdELcRJh1WvZ7/yg6ytCERHEMfxDDOXuuQ+N9JSoQgCHyGiGdOKWUbRH/r08pBJe9vHmtUnyAPA3uFwuH/tI2MVs2hVn5FlTSDZUEsPs0Zu2jElRMrVgsCtvV7v9/Oub8rEshkR9V3n+iOg/hj4vAyQ3a9+lJkPBkFwsNvtHhrXVlmRNEogmUheDwAflneSWjp6mUb07ONVRHR3GSNV1C2yiHKt3cYJZM1xpZSe3dI73GQKuIpeZM/G3qmpqYXZ2dkj9pqYbDnvEvjMYuV71K0OsUbBMBgMXh0EwS+mafpKRHwpALxoMlxSwgECf0FE1zto97km84rExlRv7QJxCbi03TwETEVi69o4EUjz+kzrPJ4kEi2Obre7Oe8kgwmQIhATlKSMcwT07BYi6ius9fTy6kyZFob+fjI1NbXLhjhW23AeuTggCHiMgAjEY3LENfcIiEDccyAeeIyACMRjcsQ19wiIQNxzIB54jIAIxGNyxDX3CIhA3HMgHniMgAjEY3LENfcIiEDccyAeeIyACMRjcsQ19wiIQNxzIB54jIAIxGNyxDX3CIhA3HMgHniMgAjEY3LENfcIiEDccyAeeIyACMRjcsQ19wiIQNxzIB54jIAIxGNyxDX3CIhA3HMgHniMwP8B+ZzTMq2gEHwAAAAASUVORK5CYII=;" vertex="1" parent="1">
          <mxGeometry x="38.64" y="609.71" width="115.71" height="115.71" as="geometry" />
        </mxCell>
        <mxCell id="AcUgybYXmRdaUsrV0XQZ-10" value="" style="shape=image;verticalLabelPosition=bottom;labelBackgroundColor=#ffffff;verticalAlign=top;aspect=fixed;imageAspect=0;image=data:image/png,iVBORw0KGgoAAAANSUhEUgAAAMgAAADICAYAAACtWK6eAAAf8ElEQVR4Xu1dCZhU1bGuurcHQTGCu4jCDIxGcIHpIZj4XiRxDTODookmvjx9RqNZjNHoF8MD5lYPmERj4tOs5mliXqImE3HJ9KCocYtxgelBRRCEmUGCxrjFCLLN9Kn3nXYGZunbfc/dmz7n+/j0+7qqTtVf959zl3OqEPTQCGgEbBFAjY1GQCNgj4AmiL46NAIFENAE0ZeHRkATRF8DGgF3COgVxB1uWqtMENAEKZNE6zDdIaAJ4g43rVUmCGiClEmidZjuENAEcYeb1ioTBDRByiTROkx3CGiCuMNNa5UJApogZZJoHaY7BDRB3OGmtcoEAU2QMkm0DtMdApog7nDTWmWCgCZImSRah+kOAU0Qd7hprTJBQBOkTBKtw3SHgCaIO9y0VpkgUHIEIaJhAHAsAIwskxztbmG+f8ghh6y49NJLu0shsJIhSFNT03QhxI0AkAQASRI9SheB7QCQQcT/sSzrj3EOoyQIQkRfAoDb4gyk9s0dAoj4HcuyrnOnHbxW7AmSSqU+w8yLg4dCzxAhAscR0YsRzm87dewJQkRtvbdVccRP++QPAg8R0Wn+mPLXSqwJQkSTAGClvyFrazFFIJarSKwJkkqlPsfMzTFNqHbLRwQQ8XzLsn7ro0lfTMWdIBYzky+RaiOxRgARybKsVNycLHWCPB43QLU/BRGYYferJoiLKyeVShVcQeIKqotQd3uVUs1lSa8gmiClwytNkAByVaqgBgBFyZss1VzqFaTkL73SCEATJIA8lSqoAUBR8iZLNZd6BSn5S680AtAECSBPpQqqKhRHrr5/771NI8kmyn9rkM1MZvzpf1e1E2f5Us2lXkEivqqSa1r2hwp8BACOG+TKOZmq+lhvBVeBThNEBS2HsqUKqsPwcmK1XelFzHBWPh0GntVe1dCiYi+usqWaS72CRHhF1Xa2nsLADxVwoTVTVV8foYu+Ta0J4huUuwyVKqhOoUh2pe8Ehi8UlBc8OzOx4T6nNuMqV6q51CtIRFdUTdfi45HFM8WmR4AH26rqP1NMLu6/a4IEkKFSBdUJFLWd6VsY4BInssj42bYJdYucyMZVplRzqVeQCK6o2nXpo9mAFQpTP5ypqj9VQT52opogAaSkVEEtBkWyM30DAFxVTK7/7wwwF0x80RSw0ejBt5+rnrlRRT9q2VLNpV5BQr5ypna2jjOA1ytPi7iamWXZo9wwTXhk2bj6TmU7ESloggQAfKmCWgiKmq5WC92ekmT+OSM+32efs8a9y6tnvhUA9L6bLNVc6hXE90vB3uDHVz64744RPfKCNtxNi68w8A93EgRw9fKquifd2QpXSxMkALxLFVQ7KJIdf/oOoPG9AlC9DQD7F4KSDfgJiF0P+D1ix30vTjzrzQDg99VkqeZSryC+Xgb2xpJtt1TAvoe+BwB72kkhwHcZ8D8B+DBbSwwdjHD9zmcRNNYsq5z5REhhuJ5GE8Q1dPaKpQpqvohqOtJXIMLOh+yhMiwEGFUGgCTIgkJwCuCbEXBnvbAeUXHfixNPi/UqUqq51CtIAMTOZzLZ1foOMO9bYLrbMlX1Fx+7bsmBFUZPBoDHFpDtZICd9WwN5FfaKhtiXeFFEySAC61UQR0MRbKj5SuA+PNCECHw9LaqhqVSJtnRegcgn1f4WQRvBMGr+2RwON+TGdMgn2FiOUo1l3oFCeFySnalXwOGMfbPFXhfZkLdbPn7lI6WasPAOmSeA4AHFnBvLQPID44fDiHWtU+c9WgI4biaQhPEFWyFlUoV1L6opnTdO96AYTOQ+dcFVwMTG9rH1aWlTG1H69kCeT8APhUBzy6IEMO9gPgug3gX0XzH3Lbt1qVHnfVOAKnwbLJUc6lXEI+pn7SyeeRee+41UTBXM0C1gTiRmasB5D88qJh5BnyivaouV3HwY+uXVPaI7lPk/zPAHgbgHAA+pJiNfr9/AADy6/oGQNgAAjewgV0IvL47u70rytfBmiAKWXQqGidQp29cPLanR1RzD8hboInMUA0gqgFxIgDs4TSmwXKM+KX2yrrcClOzvmU2CDxg120TnIQGnOPWdh69f0nyIOB6Bl6PjF2SQMMSxpPPHHb6uz7OM8RUnHKpEqdeQWzQqulMX4LA0+SqgJIEDIeqAOtIlmFFZkK97LcI015bclh2e/eAcx9oQAIFzuHCb7QcTeVA6I4sdl/2fOVs+a3G96EJ4jukAFGAWtOVPg0Zrg2laY+BV2XG1/1IQpdc13ImG0MfyhH5RGAs+EbLN+gRb8pU1l3hm71+hqLIpR9x6BVkEIrJznRYHa02msOGT1k69uR3jl27aGzC3GNm3oQiIgLPAYZxfiS8mA2D4ZRlE+pllRVfhyaIr3B+aCxsUGu6Wk9H5gcCCGWISRbiwvaJs26XP9R2pmcJgIPt5jUSxgHcI+YCwIigfUOAi9uq6n1vmBp2Lv3CSa8g/ZCs7Ww5nwF/4xe4+e3gK4xwZ3tlXa5ZzNQN94/BHrNg5RJDwNOMMA4MPi/o2y1GpD7f/MRBE8RPNHttEdEPAOBqO9N+tz/wdFYjv5OvAIDs3irfGr0KzOvfF4mHpeh+ZveoLAwbJaDnCAC0fZVrMG6qrPqg+Y94TlbqTel6bFQCt1aKLM9C5KMZYT/k3A7g/UH+F6HCQypWZ6rqj/Kgb6uqCRIAqqlU6lFm/lRYBJHzJLvSrcCQ/3kgryO4DZGXM8NyALEcGFYnRGK9PBI7aWXzsMQeiVHDcY9RAsUoBhgFgPswGKMAhKPVGw3Rlhk/q33w1Mn1Dx7Coqchn0vMPBLBOAhRHAyAk52+cEDA89/LYvO66pnb/U6nJojfiAIAEcn39h8JkyBT1943yTATd+YpBZqfHojn8Tsb74YxY/bhbMUo5uyoRDePYuRRkggM7PJwlDxVxdt4ONydGdOwJd/ktV0PzBCcPcIWnw+rpiSdpIYBfgkAGSmLBm5GwZuFYWw2RHazCeLV56rO+IcTO3YyDgjyB8uyPu9ljiB0Hf0VC2LiYjaJSIJ1VyE5v2+x+uaS58ZN4LsY4OPF/Oz9/TcM8LRDWcdiiPhCprLuOTuF6Z33H9QN5hn5fkeX5LAnG6+Hd19/LFN7abfjAPoJFiMIAKwjomo3toPUiTNB5MY729ur3F+6ADujTl27+ADTEHcxwklOEsAIvweGx5zIOpExALLbTbhnxbj6fxaSn9rZ+kkE/mh/Gb/J0WfbTJjLlx3+mWVO/B8sM5ggzCzzN0DMNM2q+fPnd7mxH5ROLAlCRDV9y30UK0jfnMe+sWSvxJYddyFg3nv9wb4hwz0CYYlPyXq5var+L8VsSSKjKXI7gXN/NHxeOQbPv23rlttXTT5nRzG/ihEk93WHebDY94lojqrtIOVjSZBUKvULZr50yAU4CNQgV5CdczNjzfrWO5HB4f0xphnYU0V2A+ANfvfgBzK1tY5uZ6a9mq7KZuHkoMkhMek24Y/FVrV8F6yDWyyp9i4R7RfkBa9qO3YEue666/beunWrPPgzrFgwoRCk14marvRtyPClYj7lfmfxMKNxtyPZfkIG4NasIdYx97ysuicq2ZmWBa7zPo8M9qP/A7mqjxVZ4/fPVc98X1XPIUHkbdfnLcv6g6r9oORjR5BUKnUVM+86CDQo8v5Lc5gEkW7UdKR/hwj/4SQZjPgEMMu3YfnGFkB8GwH+KQzclOg2N3WbWzZVj+/e1Pe9w8kcfTLJznQzAHzOoc6PGeAlh7IDxNCAtZnx9a6es5wSBAAeJSJHz31uYlDViR1BiGgNANi+uuwfYNgEkXMnO9Oy69NnnQDNAE8ycxMgvC0q4O3u97f+a9XkczY70XUqo0iOAV2r+m7NnMwlybzDhEfc3F5J+woEkeJHEdHO48RO/AtKJlYEIaJZAHC/02CjIMiUrntHmdmKW8DpOQ2E+zOV9Wc6jUlFrrYrfSMzON19Gxk5XBDkR0SkVLtYBTcV2bgRRB47rXMaQBQEkb6d8Nb9e2/bZP4YAC5w5CuKb2YqZ93sSNah0NSOlpMMzPU2dDIiJYcLgmwmor2dBBa0TGwIMm/evKMSicQqlYCjIoj08dgXluyVGNn9Q0QY8rZtcAyM8vuI8d/tlTOfVYmvkKzCxsrIyeGCIPJh/XzLsn7rF15u7cSGIEQki6o5vV3oi/d2IrrQbfBe9WZ0PTb8ffjge1jkNgeRVwrGm00DXlo2vt6XL+4ON1bGghxuCAIATxHRv3vNkVf9WBCkubnZXLVq1RvF6tL2D7b3KyxZlpXbNh7VSHJbhVj/j5SRK9OTfzDwswCYO3eOLFZlJsx6yqu/NZ2LGxDEnwrYWZ+pqq/s+z3MB/J8Pik+pOdMGIYxpbGx8QWvWHnRjwVBUqnUV5n5Z6qBRHmL1d/XqR0tXzEKFYZDuJcZHuzTYR+qsk9bd99hwkhsKIRZpqo+l9+oyeFyBZFqPyGib6heF37Kx4UgS5l5mtPA+r6FxIUgyc7WmwD4clv/B/X1yP119KFcaLIzLVdd29JCKOAYrIAt8iu7E2y9vsotNIebFQQA5JaWvYiox4n/QchEThAiksnLHSJSHbEhSEfLnwHx0/b+G40MYuh2ccNY1z5+putqiDVdrYuR2b4DrmFczUJscoJrkOTwsILIh/WLLcvy/QiwE0ykTBwIovIVOBdX307Q2BCkUGlRxC3MfKVdQowsv9JW7a7wdE3n4oUIubPqeQfL8/WIRXusB00OLwQBgKVENN3pBe23XKQEmTt37riKigpZCdDVoaLYEKQzPWRbal+iGED2IyzUNAcSjI/vMHa8aWYTMwBxjEgYjy8fN7PoK++arpZzkfH39rd2A3uJ5JMLgxweCQLZbPb4BQsW2J6L8ZsU/e1FShAikvWn/tttgHEgyNRXF08ysmJnr47BsTCATOyvbP/KA+yBAo5AhNmAA4rTtYLgWzMTG2xXgGRH6zGALM+82ywh2M3Il9n9HBY5vBIEAH5JREW/N7m9jgrpRUqQVCq1jpknuA0sDgSp6Ww9B4Ftd58i4y0CeciZ8tz9rWF8Elh8GhgK1d9dgsC3tlU1DN0d3NxsJqft9WahviMs+NtgoDy6PGCESY58BLE5D2J7KWzevHnkDTfcIGsPhzoiI0gqlbqAmXN1odyOOBAk2ZVOAUOj/QqB54LgDjB2nQ1HwGkALHes7vxOURQD5kcRjFvbJtQNOIZc05l+GMH+LZVAvBmZ861wjg5kFfXLoYDLt1j9rX+diJQ/BTh0z1YsMoIQkdxH5GlbcywI0pmWq4dtgWkDcSpzzwECzEo04GgWfDICui6tgwBPAvBtbVUN/yezmuxsuQkAbV8xI8I9gvOccmR4u31C/T1eLyCn+j4Q5Hkimup0Pr/kIiEIEX0CAP7qNYiYEET2LT/OJpY34F2eAKPxakY+EwF9SzAjPG0w/EoAmAhwix2WCNgmgP833+/tVfWykkkowweCSD9PJKJQ215HRZBbAeAir5mJCUG2AsDwfLHI3h/I3AUI/+U11gK3cMtkFXr7ewR8k5nn5/u9Z8+KO148+LRQ7ut9Ikjoe+9CJ8icOXMOGD58+BpmHu31oomaIMetaTk0UYEbvcYRuL4hvs7CGPI1mgGXLK+qezXw+dUPTBVyaT8iCrSXSf/JQydIKpWay8wLVZKSr0SM1I+aIMnOllMB0K8qJn2QyG61uY5Tvg3E7zGz/B4zYDBj+/IJdbKafeDDpxVE5vxblmUVaKftbyihE4SI5CtPx/fihV4HRk+QtNxI59NBKF7DbFzdPqEuPa0jfbJAXADAx/uRbgbxOwBjaAkhxA3tlXU7N1H6MZedjUIEUXzlu4qIZDnVUEaoBCEi+bbHt4oVUROktrPlJwz4dU+ZYniLkee2VzUMeJCWtXdBdF8EYFwCwId5mgPgcc5TpVJWUWmrqgvlUJJfK0jvncOplmW52r+nimPYBJGvFXcWOXPirN3tVRxusYp9gygYH+I2ZnyIE4mvLj/81Nf7ZI95NT06kcVjBlRLRKhBzpX0se0hUnAutt9y4rYQnJPc9ZfxkyAAcCcROaouo+rnYPnQCEJEUwBkBXSlIW/HZJXFvCPqFSTZ2bIBAF38defH2YBFhsCte+zINv/1o2dskqcTN/PmY0XulfGgmpy90bOAT5gG1zOganG17QyQ91sJGttbMuPP/rtSVlwIOyCI3JNX5dR0RUXFmLlz5wbud5gEkb34bHe12gDzCwD4SnwJYr9JMZ/PjPAMMLQCwFu537PivfbqWc1TO1uOMwUcJwzM+7p4gC0hEExjBgqYCWhf+X6ADsJ7zHBNPp9kc562ifWu6mQ5vZilnAOCyF3djjv6MvOcVCr1fRUf3MiGQpCrr756r5EjR8rtDip99p5FxAeZmUqeIB/2D3kEANcNvHBxA7C8yHmUavIQeQQLYwYacCow71lEfx0DyGZEQ4aJxppllTOfUJ1fVb4YQeTdADN/q1C7i0FzhlINPhSCpFKpbzCz6tuecxHxqDgTpLaz9U8MbFvYmhmeRsDnGTmwc9XMYjSiMQM/3LaTv7sU8k3MmHf7vGHgO23j6xapXvCq8g4JInvBSJI4HQ1EJEtFBTZCIQgRyXf7JypEsYmIPuIE1CiLNiQ70nWAIE+7DTj2igjPCME/BcPsABa5Puh+DNlQBxA2CMahlSeZD0GU309w5zcUBNwoEJYDc8GLKIwtJ05yKYT4NSKqfLi8m4icllx1lYLACUJEskGlUrVzRGy0LGuBE1CjJIhEvPdr+hWMOBmEWGEAL22bMCv3F1l2zQXmw11lZpASZkVbpvrDVmzT1y7+SE+FSLKAIQ1nWIjhhmHsAwD7MIDskVh0JLbvWLT0qLPeKSroQcBpLolIVnw5welUPT09VQsXLgysp0gYBJHlblT3Io0movecguoUzLDlarvSnxe5Zwz3w0SxRowf83QGh7ZCkA09UWxOIqLrMzXSM3micemEOkdkchuJ01ymUqkvsH3R7yHTB/0mM1CCENERiNjGzCplJP/Q236t6JuPoMFxezHk9GRfka7WL7u1YTBvrBhW8ewzh51edN9R8vWW/XGbmCq31LuZjw1esXx8wzNudJ3qOCWItJdKpXYws9NuvRuISOXlj1OXc3KBEqQYKPk8NQzj+MbGxtz542L6cSbI5JXN++4xYk9HVeAH4GDwW4J7lj9fOXvI3qlimZ3W1XqwYDyWQYwvJjvgdxNfbx9XF+jDrkouieinAPA1hRg+R0TK/Vic2A+SIEhE8u3NMU4c6ZV5iYh2yquAqjBHKKKF2jTn/cPAYhOD+VJmQt0Krw5OX7t4bDfy0WA4fP4Rxrr2ie7LDznxVyWXRDQRANY6sZv7K4/YYlmW7Azg+wiMIC6P1F5ARLmTcqW+gjgmCOIOFvBSELtqp3TdOz4hEpME4thCV44B/HxbVcNS36+ufgZVCCLViEi2pLbdRZHH10B6igRGECKSdWMdNb/sDVYQkdk/cFVQg0ywG9s1HemzAGF/O11ZpzchEi+6aWmm4k/NuvsnGoY5SeTZy6XaD1FlXi+5JCL5YidXz9jhCKQBaCAEmT9//ommacpvH44HM1+fSqUGbIcodYLI4Gteba2HLI/pDwSb3DEsO+Kl56pOHlpt0TFi6oK1nQ8cyaLnKDbwQKltCnip2+xepdoPUX1md8+TRGRbbyyPD28QUaHqMG7cDuYhnYhuApvNcQW8PISIZK3ZnWN3IEiOJH97cCJs79kni7gJesQHLxzZ8JqrbPmkJDdGvrnlrYTf7eAKuecml0SkdDQbEb9oWdYdPsGUM+P7CjJ37tzDKioq5CvDQxUcTRPRkNsxN6AqzKlFQ0TATS6bmpomCyFUNlI+TESn+hmW7wRJpVJXMrPcuet4ZLPZGQsWLBiyYc4NqI4n1YKhIuA2l0Qk95A5LpPkd08R3wmiulUAALqIKO85ALeghpp5PZkjBNzmsrGx8VLDMOSxB6fjRiJS2fBY0K6vBGlsbJxtGIZSMTJElOcjluXzkpnlxrtCBQweR0SllwFOUbbxR+5Xkn28ixaW9jJPkLpEtKcQ4gTTNGVtstCGl1wW2tGdJwC58+Agv3qK+EoQIpLnm78YGuoRTYSIK7PZ7C1NTU2y023JDCKSh5JkF+Fi50dKJiYbRy8iItuC4SrB+UaQ3iO1soTMgG8ZKs6UoGxoZ6O9YkNEj/leTsirU8Hpv0VEuVfZXoefBJFVJhy1+vLqdMz0W3u39MfMrV3uKH5PiG0cKo4JIc5vamryXLHFF4IQkfwQJjfXOd2BqRJr7GUR8TzLsgZUXY+L00QkC9v5+uozLrEV8gMRuyzLclwEws6WLwRJpVKzmVnp4bwUQFbxsbu7e+y1114b6QfAwf72vs35oUocu4ssM2/74IMP9vfaU8QvglzEzPKrZzmPSMrz2wFOREcDgOedwaWQULvaaT09PZMWLlz4spcY/CKI5fRVnGKZSS+xRaE7l4i+G8XEeVYPeWF8NA6+ROjDp3rrIbh2IXSCqHhaqKqiip0wZRFxlmVZSmfw/fav9xXnhX7bDcpegH80d2+CBJWQIO0i4lvM/DEiUj4R6IdfRHQxAORtmOOH/RKzoQkS04QtIiL147Yeg+nd3PfnwWWIPJotZXVNkLhmL4rz8kR0LwCcGVdMIvBLEyQC0FWmvIqIlHY2qxjvL0tE8rZK3l7psQuBkibIp0okk7IbluNCZoNjEkJc3NTUJKsvBjaISH7r8LKDVZaFlatPbAcinuj0TWm/IEqbIF5fwYWRTSKSpUO91ta9kIg89YTPF2tzc7P58ssvz3Nx4fQ3t6I3xjDgdD1Hse3yNoY1QVwjrqBIRJcBgNedu3eaprlw/vz5nj5c9blNRKcjoiSH69Wt19ZJRPSoAhyRiGqCRAK780mJSLaOc9y/Ip9l+QpYCLFw69atv77++us3OZ99lyQRyaJwsjeil1uqPoMLiShvi2g3vgWpowkSJLo+2J43b151IpGQTezdtUEb6MObvQW9f+f0NpOIZgLAuQBwniyn6zUkRHzYsqyS2cSoCeI14yHop1KpC5nZl4M4/dyVRaNl1Xb5YVGW/pf/lQWvZVX43D9E/DdmVm27VgiR9w3DOLmxsTHvSc4QoFSeQhNEGbJoFIhItv3K284sGo/UZw2iPI66F2oamiBqeEUqTUS3AMAlkTrhcnIhxGVNTU2yOHRJDU2QkkpXrnas54f2CEKOzW5j1dg1QVQRi1ieiIYBgGwZcErErjid/gdE9G2nwnGT0wSJW0Yc+CMLAzBzGhGnORCPUuS23l2+UfrgaW5NEE/wRae8YMGC6mw2+8sYVwy5nYhK5myIXSY1QaK7xn2Z2WUCfZnbxoh8XZwKYotLkE5rguxCwPM+mSgSVWhOIpJVIOfGoPyR/FazIKpDW0HkxeUfIM/XWJRHbj07H0Qi/LBJRFcg4neYeUD/dD9sF7KBiMuYWTaS2e0qzGiCBH31hGy/99nkm4h4FjP73thlUDgrEHHR6NGjv3/55ZdvDznUUKbTBAkF5vAnIaJRQoizDcM4q7eAm+d9VDIKRPw7Mz8EAPf0trsLP7gQZ9QECRHsqKayLEvuq5LlWeU/WV1dtb/3cgBYDACPAMBTflUwjwoPlXk1QVTQ2k1kiegIREwCwBGFQspms08bhvFXItqym4SuHIYmiDJkWqGcENAEKads61iVEdAEUYZMK5QTApog5ZRtHasyApogypBphXJCQBOknLKtY1VGQBNEGTKtUE4IaIKUU7Z1rMoIaIIoQ6YVygkBTZByyraOVRkBTRBlyLRCOSGgCVJO2daxKiOgCaIMmVYoJwQ0Qcop2zpWZQQ0QZQh0wrlhIAmSDllW8eqjIAmiDJkWqGcENAEKads61iVESh1gnyVmX+mEjUifs2yrJ+r6GjZ8kWg1AlSJ2vUKqZvtyiJqRizFneJQEkTpKmp6RghxIuKsb9MRJMUdbR4mSJQ0gS55ppr9hkxYsR7qrlDxMsty/LaPVZ1Wi1fggiUNEEk3qlU6iVmnuwC+9FEpEwuF/NolRJGYHcgiOWyof3zRDS1hHOnXQ8BASKSbeO+pjjVCUT0tKLOAHFfildLi01NTScIIZ5y6cz7QojPNjU1PexSX6vt5ggQURsAyCJ7jodpmkfMnz9/rWOFPIK+EUTaJqLVAHCkB4daAEAGtBIAOj3Y0aq7CQKIeAwzX6BKjt7wPd+++0oQl/eJu0kqdRgxQ+BtIjrAq0++EuTaa689pLu7Wy6FY7w6pvU1Ah4R+BURXeTRBvhKEOmMXkW8pkTr+4TAGX60hfCdIHIV6enp+QszT/ApUG1GI6CKQIaIalWV8sn7TpDeVWQ2M+92bcD8AFzbCAWBS4lIdh72PAIhSC9JlDcweo5GG9AIAPi2ekgwAyOIfh7R12oECGyTr4OJaJVfcwdKEOlkU1PTdCGEbBk20i+ntR2NgA0Ck/0kR+ArSF8QRDQWAOTZj3qdWo1AQAgE0lY88BWkPxipVOpKZv4WAEjC6KER8AOBdQDwZSJ63A9jg22EShA5ee9qIklyZRABaZtlg8BWAPhxIpG4ed68ea8FFXXoBOkLZN68eUcmEokGAJD/PhlUgNrubodABgCeBAB5IlX1kJ4yGJERpL+nRHSwEGK6aZqHM/PhACD/HagcjVbYHRH4GyKuAYDVzPwcEW0MM8hYECTMgPVcGgEVBDRBVNDSsmWHgCZI2aVcB6yCgCaIClpatuwQ0AQpu5TrgFUQ0ARRQUvLlh0CmiBll3IdsAoCmiAqaGnZskNAE6TsUq4DVkFAE0QFLS1bdghogpRdynXAKghogqigpWXLDgFNkLJLuQ5YBQFNEBW0tGzZIaAJUnYp1wGrIKAJooKWli07BDRByi7lOmAVBDRBVNDSsmWHgCZI2aVcB6yCgCaIClpatuwQ+H9p34e5RuchBwAAAABJRU5ErkJggg==;" vertex="1" parent="1">
          <mxGeometry x="31" y="238" width="131" height="131" as="geometry" />
        </mxCell>
        <mxCell id="AcUgybYXmRdaUsrV0XQZ-11" value="&lt;font style=&quot;font-size: 18px&quot; face=&quot;Tahoma&quot; color=&quot;#757575&quot;&gt;&lt;b&gt;模型优化&lt;/b&gt;&lt;/font&gt;" style="text;html=1;align=center;verticalAlign=middle;resizable=0;points=[];autosize=1;strokeColor=none;" vertex="1" parent="1">
          <mxGeometry x="55.5" y="369" width="82" height="20" as="geometry" />
        </mxCell>
        <mxCell id="AcUgybYXmRdaUsrV0XQZ-14" value="&lt;font color=&quot;#757575&quot; face=&quot;Tahoma&quot;&gt;&lt;span style=&quot;font-size: 18px&quot;&gt;&lt;b&gt;优化效果评估&lt;/b&gt;&lt;/span&gt;&lt;/font&gt;" style="text;html=1;align=center;verticalAlign=middle;resizable=0;points=[];autosize=1;strokeColor=none;" vertex="1" parent="1">
          <mxGeometry x="37.5" y="547" width="118" height="20" as="geometry" />
        </mxCell>
        <mxCell id="AcUgybYXmRdaUsrV0XQZ-15" value="&lt;font color=&quot;#757575&quot; face=&quot;Tahoma&quot;&gt;&lt;span style=&quot;font-size: 18px&quot;&gt;&lt;b&gt;返回模型优化细节&lt;/b&gt;&lt;/span&gt;&lt;/font&gt;" style="text;html=1;align=center;verticalAlign=middle;resizable=0;points=[];autosize=1;strokeColor=none;" vertex="1" parent="1">
          <mxGeometry x="26" y="733" width="154" height="20" as="geometry" />
        </mxCell>
        <mxCell id="AcUgybYXmRdaUsrV0XQZ-17" value="&lt;span style=&quot;color: rgba(0 , 0 , 0 , 0) ; font-family: monospace ; font-size: 0px&quot;&gt;%3CmxGraphModel%3E%3Croot%3E%3CmxCell%20id%3D%220%22%2F%3E%3CmxCell%20id%3D%221%22%20parent%3D%220%22%2F%3E%3CmxCell%20id%3D%222%22%20value%3D%22%26lt%3Bfont%20color%3D%26quot%3B%23757575%26quot%3B%20face%3D%26quot%3BTahoma%26quot%3B%26gt%3B%26lt%3Bspan%20style%3D%26quot%3Bfont-size%3A%2018px%26quot%3B%26gt%3B%26lt%3Bb%26gt%3B%E4%BC%98%E5%8C%96%E6%95%88%E6%9E%9C%E8%AF%84%E4%BC%B0%26lt%3B%2Fb%26gt%3B%26lt%3B%2Fspan%26gt%3B%26lt%3B%2Ffont%26gt%3B%22%20style%3D%22text%3Bhtml%3D1%3Balign%3Dcenter%3BverticalAlign%3Dmiddle%3Bresizable%3D0%3Bpoints%3D%5B%5D%3Bautosize%3D1%3BstrokeColor%3Dnone%3B%22%20vertex%3D%221%22%20parent%3D%221%22%3E%3CmxGeometry%20x%3D%2237.5%22%20y%3D%22547%22%20width%3D%22118%22%20height%3D%2220%22%20as%3D%22geometry%22%2F%3E%3C%2FmxCell%3E%3C%2Froot%3E%3C%2FmxGraphModel%3E&lt;/span&gt;" style="shape=ext;double=1;rounded=1;whiteSpace=wrap;html=1;gradientColor=#ffffff;fillColor=none;" vertex="1" parent="1">
          <mxGeometry x="15" y="162.5" width="170.46" height="630.5" as="geometry" />
        </mxCell>
        <mxCell id="AcUgybYXmRdaUsrV0XQZ-18" value="&lt;b style=&quot;color: rgb(10 , 10 , 10) ; font-size: 18px&quot;&gt;本地服务计算器&lt;/b&gt;" style="text;html=1;align=center;verticalAlign=middle;resizable=0;points=[];autosize=1;strokeColor=none;" vertex="1" parent="1">
          <mxGeometry x="35" y="205" width="136" height="20" as="geometry" />
        </mxCell>
        <mxCell id="AcUgybYXmRdaUsrV0XQZ-21" value="&lt;font color=&quot;#0a0a0a&quot;&gt;&lt;span style=&quot;font-size: 18px&quot;&gt;&lt;b&gt;下载&lt;/b&gt;&lt;/span&gt;&lt;/font&gt;" style="text;html=1;align=center;verticalAlign=middle;resizable=0;points=[];autosize=1;strokeColor=none;" vertex="1" parent="1">
          <mxGeometry x="278" y="306" width="46" height="20" as="geometry" />
        </mxCell>
        <mxCell id="AcUgybYXmRdaUsrV0XQZ-24" value="&lt;font color=&quot;#0a0a0a&quot;&gt;&lt;span style=&quot;font-size: 18px&quot;&gt;&lt;b&gt;上&lt;br&gt;传&lt;br&gt;&lt;/b&gt;&lt;/span&gt;&lt;/font&gt;" style="text;html=1;align=center;verticalAlign=middle;resizable=0;points=[];autosize=1;strokeColor=none;" vertex="1" parent="1">
          <mxGeometry x="498" y="441" width="28" height="35" as="geometry" />
        </mxCell>
        <mxCell id="AcUgybYXmRdaUsrV0XQZ-28" style="edgeStyle=orthogonalEdgeStyle;rounded=0;sketch=0;orthogonalLoop=1;jettySize=auto;html=1;entryX=1;entryY=0.5;entryDx=0;entryDy=0;shadow=0;" edge="1" parent="1" source="AcUgybYXmRdaUsrV0XQZ-25" target="AcUgybYXmRdaUsrV0XQZ-6">
          <mxGeometry relative="1" as="geometry" />
        </mxCell>
        <mxCell id="AcUgybYXmRdaUsrV0XQZ-25" value="&lt;font color=&quot;#0a0a0a&quot;&gt;&lt;span style=&quot;font-size: 18px&quot;&gt;&lt;b&gt;使用者&lt;/b&gt;&lt;/span&gt;&lt;/font&gt;" style="text;html=1;align=center;verticalAlign=middle;resizable=0;points=[];autosize=1;strokeColor=none;" vertex="1" parent="1">
          <mxGeometry x="707.36" y="536" width="64" height="20" as="geometry" />
        </mxCell>
        <mxCell id="AcUgybYXmRdaUsrV0XQZ-29" value="&lt;font color=&quot;#0a0a0a&quot;&gt;&lt;span style=&quot;font-size: 18px&quot;&gt;&lt;b&gt;上传模型&lt;/b&gt;&lt;/span&gt;&lt;/font&gt;" style="text;html=1;align=center;verticalAlign=middle;resizable=0;points=[];autosize=1;strokeColor=none;" vertex="1" parent="1">
          <mxGeometry x="583" y="619" width="82" height="20" as="geometry" />
        </mxCell>
        <mxCell id="AcUgybYXmRdaUsrV0XQZ-34" value="&lt;font color=&quot;#0a0a0a&quot;&gt;&lt;span style=&quot;font-size: 18px&quot;&gt;&lt;b&gt;可&lt;br&gt;视&lt;br&gt;化&lt;br&gt;效&lt;br&gt;果&lt;br&gt;&lt;/b&gt;&lt;/span&gt;&lt;/font&gt;" style="text;html=1;align=center;verticalAlign=middle;resizable=0;points=[];autosize=1;strokeColor=none;" vertex="1" parent="1">
          <mxGeometry x="390" y="428.49" width="28" height="82" as="geometry" />
        </mxCell>
        <mxCell id="AcUgybYXmRdaUsrV0XQZ-35" value="&lt;font color=&quot;#0a0a0a&quot;&gt;&lt;span style=&quot;font-size: 18px&quot;&gt;&lt;b&gt;模&lt;br&gt;型&lt;br&gt;下&lt;br&gt;载&lt;br&gt;&lt;/b&gt;&lt;/span&gt;&lt;/font&gt;" style="text;html=1;align=center;verticalAlign=middle;resizable=0;points=[];autosize=1;strokeColor=none;" vertex="1" parent="1">
          <mxGeometry x="426" y="436.49" width="28" height="66" as="geometry" />
        </mxCell>
        <mxCell id="AcUgybYXmRdaUsrV0XQZ-36" value="&lt;font color=&quot;#0a0a0a&quot;&gt;&lt;span style=&quot;font-size: 18px&quot;&gt;&lt;b&gt;上&lt;br&gt;传&lt;br&gt;&lt;/b&gt;&lt;/span&gt;&lt;/font&gt;" style="text;html=1;align=center;verticalAlign=middle;resizable=0;points=[];autosize=1;strokeColor=none;" vertex="1" parent="1">
          <mxGeometry x="287" y="441" width="28" height="35" as="geometry" />
        </mxCell>
        <mxCell id="AcUgybYXmRdaUsrV0XQZ-37" value="&lt;font color=&quot;#0a0a0a&quot;&gt;&lt;span style=&quot;font-size: 18px&quot;&gt;&lt;b&gt;云服务器&lt;/b&gt;&lt;/span&gt;&lt;/font&gt;" style="text;html=1;align=center;verticalAlign=middle;resizable=0;points=[];autosize=1;strokeColor=none;" vertex="1" parent="1">
          <mxGeometry x="415" y="248" width="82" height="20" as="geometry" />
        </mxCell>
      </root>
    </mxGraphModel>
  </diagram>
</mxfile>
